<?xml version="1.0" encoding="UTF-8"?>
<svg id="Calque_2" data-name="Calque 2" xmlns="http://www.w3.org/2000/svg" viewBox="0 0 9.98 9.98">
  <defs>
    <style>
      .cls-1 {
        fill: #036799;
      }
    </style>
  </defs>
  <g id="Calque_1-2" data-name="Calque 1">
    <path class="cls-1" d="M4.99,0C2.23,0,0,2.23,0,4.99s2.23,4.99,4.99,4.99,4.99-2.23,4.99-4.99S7.74,0,4.99,0ZM4.74,5.96l-.16.91h-2.58l.12-.69,1.46-1.29c.27-.23.42-.42.45-.57.02-.09,0-.16-.04-.22-.05-.05-.12-.08-.21-.08-.21,0-.39.13-.56.4l-.76-.47c.17-.28.38-.49.63-.64.25-.14.52-.21.81-.21.34,0,.62.12.84.35.22.24.3.53.23.89-.04.22-.11.4-.22.56-.11.16-.27.33-.49.53l-.61.52h1.09ZM7.82,6.31h-.37l-.1.56h-.93l.1-.56h-1.61l.15-.85,1.46-2.26h1.07l-1.47,2.26h.55l.12-.66h.94l-.12.66h.37l-.15.86Z"/>
  </g>
</svg>