<?xml version="1.0" encoding="UTF-8"?>
<svg id="Layer_2" data-name="Layer 2" xmlns="http://www.w3.org/2000/svg" xmlns:xlink="http://www.w3.org/1999/xlink" viewBox="0 0 19.38 21.59">
  <defs>
    <style>
      .cls-1 {
        fill: #3ec9ff;
      }

      .cls-2 {
        fill: #036799;
      }

      .cls-3 {
        fill: url(#Dégradé_sans_nom_10);
      }

      .cls-4 {
        fill: #049be5;
      }
    </style>
    <linearGradient id="Dégradé_sans_nom_10" data-name="Dégradé sans nom 10" x1="13.06" y1="1.46" x2="10.02" y2="6.28" gradientUnits="userSpaceOnUse">
      <stop offset="0" stop-color="#3ec9ff"/>
      <stop offset="1" stop-color="#036799"/>
    </linearGradient>
  </defs>
  <g id="Calque_1" data-name="Calque 1">
    <g>
      <polygon class="cls-4" points="1.27 1.68 7.67 .82 4.45 21.05 1.17 21.59 1.24 1.67 1.27 1.68"/>
      <polygon class="cls-1" points="7.67 .75 7.67 .82 1.27 1.68 1.24 1.67 .05 .93 6.47 0 7.5 .64 7.67 .75"/>
      <polygon class="cls-2" points="1.17 21.59 .03 20.85 0 .9 1.24 1.67 1.17 21.59"/>
      <path class="cls-4" d="M16.08,6.12c-1.07,1.71-3.28,2.24-4.24,2.39-.29.04-.46.05-.46.05,0,0-.31.01-.52-.05h-.03s-.1-.08-.1-.08c-.07-.07-.08-.16.01-.3,0,0,1.05-1.09,1.23-2.32.19-1.24-.38-1.68-.41-2.19-.03-.49,0-1.28,1.61-2.06.78-.37,1.48-.23,1.98.03.56.27.9.67.9.67,0,0,1.39,1.63.01,3.87Z"/>
      <path class="cls-3" d="M15.16,1.58c-.51-.26-1.2-.4-1.98-.03-1.61.78-1.64,1.57-1.61,2.06.03.51.6.94.41,2.19-.18,1.23-1.23,2.32-1.23,2.32-.1.14-.08.23-.01.3l-1.23-.7s-.05-.07-.03-.11c.15-.19.67-.86,1.09-1.83.52-1.18-.08-2.42-.08-2.42,0,0-.68-1.38,1.02-2.24,1.54-.78,2.45-.36,3.65.45Z"/>
      <polygon class="cls-2" points="10.05 12.88 8.82 20.43 7.61 19.77 8.85 12.2 10.05 12.88"/>
      <path class="cls-4" d="M19.38,8.53l-.55,3.59-1.07,6.91-8.81,1.39-.1.03-.04-.03,1.23-7.54h.05c6.53.04,9.1-4.09,9.28-4.36Z"/>
      <path class="cls-1" d="M19.38,8.53c-.18.27-2.75,4.4-9.28,4.36l-1.26-.68c7.73-.57,9.25-4.41,9.25-4.41l1.28.74Z"/>
    </g>
  </g>
</svg>