<?xml version="1.0" encoding="UTF-8"?>
<svg id="Layer_2" data-name="Layer 2" xmlns="http://www.w3.org/2000/svg" viewBox="0 0 22.29 25.08">
  <defs>
    <style>
      .cls-1 {
        fill: #ac2834;
      }

      .cls-2 {
        fill: #fff;
      }

      .cls-3 {
        fill: #d44151;
      }

      .cls-4 {
        fill: #e5414d;
      }

      .cls-5 {
        fill: #f7b2bb;
      }
    </style>
  </defs>
  <g id="Calque_1" data-name="Calque 1">
    <g>
      <path class="cls-2" d="M10.92,25.08c-1.08,0-2.05-.59-2.59-1.57l-2.02-3.55-.08.05c-.44.31-.96.48-1.5.48-1.97,0-3.87-2.09-4.5-4.02-.49-1.51-.19-2.8.83-3.56l5.94-5C8.5,4.54,11.3.85,12.06.3c.27-.2.6-.3.96-.3,1.72,0,4.2,2.49,5.94,4.81v.02c.09.1.16.2.24.31.1.14.2.28.3.42.13.18.24.35.34.5l.05.07c.13.19.24.37.35.54l.07.11c1.2,1.95,2.97,5.41,1.29,6.64-.76.55-5.13,2.09-8.79,2.48l-1.42.89c.5,1.86,2.36,3.23,2.38,3.25l.17.13.1.19c.78,1.41.28,2.96-1.35,4.14-.53.39-1.15.59-1.78.59,0,0,0,0,0,0Z"/>
      <g>
        <path class="cls-3" d="M13.21,20.81c.62,1.11-.05,2.16-1.07,2.9s-2.35.44-2.96-.67l-2.56-4.5c-.62-1.11-.29-2.62.74-3.36s2.99-2.17,2.96.67c-.03,2.85,2.9,4.96,2.9,4.96"/>
        <path class="cls-5" d="M18.43,5.7c2.32,3.19,3.49,6.3,2.61,6.94s-11.34,4.29-13.66,1.09C5.05,10.54,11.75,1.72,12.63,1.08s3.48,1.43,5.8,4.62"/>
        <ellipse class="cls-4" cx="16.83" cy="6.86" rx="1.97" ry="7.15" transform="translate(-.82 11.21) rotate(-36.01)"/>
        <path class="cls-1" d="M12.5,14.96l-6.81,4.24c-2.31,1.68-6.35-3.87-4.03-5.55l6.14-5.17c-.38,2.4,2.31,6.1,4.71,6.48"/>
        <ellipse class="cls-1" cx="16.35" cy="7.21" rx=".86" ry="2.49" transform="translate(-1.12 10.99) rotate(-36.01)"/>
      </g>
    </g>
  </g>
</svg>