<?xml version="1.0" encoding="UTF-8"?>
<svg id="Layer_2" data-name="Layer 2" xmlns="http://www.w3.org/2000/svg" viewBox="0 0 11.71 14.94">
  <defs>
    <style>
      .cls-1 {
        fill: #e1e8ed;
      }

      .cls-2 {
        fill: #c1694f;
      }

      .cls-3 {
        fill: #99aab5;
      }

      .cls-4 {
        fill: #ccd6dd;
      }

      .cls-5 {
        fill: #d99e82;
      }

      .cls-6 {
        fill: #662113;
      }
    </style>
  </defs>
  <g id="Calque_1" data-name="Calque 1">
    <g>
      <path class="cls-6" d="M0,4.58v5.18C0,10.62.46,10.8.46,10.8l4.84,3.81c.76.6.56-.66.56-.66v-4.76L0,4.58Z"/>
      <path class="cls-2" d="M11.71,4.58v5.18c0,.85-.44,1.04-.44,1.04,0,0-4.09,3.21-4.85,3.81-.76.6-.56-.66-.56-.66v-4.76l5.86-4.6Z"/>
      <path class="cls-5" d="M6.4.19c-.32-.26-.83-.26-1.15,0L.24,4.18c-.32.26-.32.67,0,.93l5.03,4.04c.32.25.83.25,1.15,0l5.06-4.07c.32-.25.32-.67,0-.93L6.4.19Z"/>
      <path class="cls-5" d="M5.86,14.94c-.23,0-.42-.2-.42-.45v-5.41c0-.25.19-.45.42-.45s.42.2.42.45v5.41c0,.25-.19.45-.42.45"/>
      <path class="cls-3" d="M10.04,7.86c0,.46.04.69-.42,1.02l-1.03.79c-.46.33-.64.05-.64-.41v-1.24c0-.08-.01-.17-.12-.25-1.08-.89-5.27-4.22-6.03-4.83l1.93-1.54c.53.39,4.5,3.45,6.16,4.76.08.07.14.14.14.22v1.49Z"/>
      <path class="cls-4" d="M9.9,6.15c-1.66-1.31-5.63-4.37-6.16-4.76l-.72.57-1.21.97c.76.61,4.95,3.94,6.03,4.83.05.04.09.09.1.16l2.06-1.66s-.06-.07-.1-.1"/>
      <path class="cls-4" d="M10.04,7.86v-1.49c0-.08-.06-.15-.14-.22-1.66-1.31-5.63-4.37-6.16-4.76l-.87.69c1.42,1.12,5.22,4.05,6.22,4.84.11.09.12.17.12.25v2.02l.42-.32c.46-.33.42-.56.42-1.02"/>
      <path class="cls-1" d="M9.9,6.15c-1.66-1.31-5.63-4.37-6.16-4.76l-.87.69c1.42,1.12,5.22,4.05,6.22,4.84.02.01.03.02.04.04l.88-.7s-.06-.07-.1-.1"/>
    </g>
  </g>
</svg>