<?xml version="1.0" encoding="UTF-8"?>
<svg id="Layer_2" data-name="Layer 2" xmlns="http://www.w3.org/2000/svg" viewBox="0 0 9.98 12.72">
  <defs>
    <style>
      .cls-1 {
        fill: #e1e8ed;
      }

      .cls-2 {
        fill: #c1694f;
      }

      .cls-3 {
        fill: #99aab5;
      }

      .cls-4 {
        fill: #ccd6dd;
      }

      .cls-5 {
        fill: #d99e82;
      }

      .cls-6 {
        fill: #662113;
      }
    </style>
  </defs>
  <g id="Calque_1" data-name="Calque 1">
    <g>
      <path class="cls-6" d="M0,3.9v4.41c0,.73.39.88.39.88l4.12,3.24c.65.51.47-.56.47-.56v-4.05L0,3.9Z"/>
      <path class="cls-2" d="M9.98,3.9v4.41c0,.73-.38.88-.38.88,0,0-3.48,2.73-4.13,3.24-.65.51-.48-.56-.48-.56v-4.05l4.99-3.92Z"/>
      <path class="cls-5" d="M5.45.16c-.27-.22-.71-.22-.98,0L.2,3.56c-.27.22-.27.57,0,.79l4.28,3.44c.27.22.71.22.98,0l4.31-3.47c.27-.22.27-.57,0-.79L5.45.16Z"/>
      <path class="cls-5" d="M4.99,12.72c-.2,0-.36-.17-.36-.38v-4.61c0-.21.16-.38.36-.38s.36.17.36.38v4.61c0,.21-.16.38-.36.38"/>
      <path class="cls-3" d="M8.55,6.7c0,.39.04.59-.36.87l-.88.67c-.39.28-.55.04-.55-.35v-1.05c0-.07,0-.14-.1-.22-.92-.76-4.48-3.59-5.13-4.11l1.65-1.31c.45.33,3.83,2.94,5.24,4.05.07.06.12.12.12.18v1.27Z"/>
      <path class="cls-4" d="M8.43,5.24C7.01,4.13,3.63,1.52,3.18,1.19l-.61.49-1.03.82c.65.52,4.22,3.36,5.13,4.11.04.03.07.08.09.13l1.76-1.41s-.05-.06-.09-.09"/>
      <path class="cls-4" d="M8.55,6.7v-1.27c0-.07-.05-.13-.12-.18C7.01,4.13,3.63,1.52,3.18,1.19l-.74.59c1.21.95,4.45,3.45,5.29,4.12.09.07.1.15.1.22v1.72l.36-.27c.39-.28.36-.48.36-.87"/>
      <path class="cls-1" d="M8.43,5.24C7.01,4.13,3.63,1.52,3.18,1.19l-.74.59c1.21.95,4.45,3.45,5.29,4.12.01.01.02.02.03.03l.75-.6s-.05-.06-.09-.09"/>
    </g>
  </g>
</svg>