<?xml version="1.0" encoding="UTF-8"?>
<svg id="Layer_2" data-name="Layer 2" xmlns="http://www.w3.org/2000/svg" viewBox="0 0 19.29 28.37">
  <defs>
    <style>
      .cls-1 {
        fill: #363c61;
      }

      .cls-2 {
        fill: #fff;
      }

      .cls-3 {
        fill: #c0c6d8;
      }

      .cls-4 {
        fill: #a6adbc;
      }
    </style>
  </defs>
  <g id="Calque_1" data-name="Calque 1">
    <g>
      <path class="cls-2" d="M10.97,28.37c-.66,0-1.22-.46-1.34-1.11l-.14-.73h-.05c-1.76,0-2.45-1.16-2.9-2.3-.25-.64-.53-1.37-.77-2-.25-.08-.47-.18-.66-.29-1.07-.44-1.79-1.42-2.2-3L.15,8.44c-.31-1.36-.13-2.65.5-3.76,0,0,0,0-.01,0-.01,0,.03-.12.1-.24C1.87,2.56,3.38,1.32,5.37.67c0,0,1.19-.46,2.28-.49.3-.04.69-.08,1.1-.11h0s.43-.07.91-.07c.16,0,.33,0,.49.02h.2c.14,0,.28,0,.41,0,.3,0,.82.03,1.39.2,2.32.55,3.14,2.28,3.61,3.39l.03.04.08.21c.05.12.14.35.24.63.16.47.36,1.08.58,1.81l.98,3.31.67,2.45.38,1.48.2.84c.33,1.43.38,1.87.38,2.1,0,.36-.02.74-.07,1.11h.03c-.17,1.79-1.19,3.18-2.91,3.97.05.15.09.3.13.44.33,1.18.24,2.2-.25,2.95-.2.3-.52.65-1.06.89l.2.85c.21.86-.45,1.69-1.33,1.69h-3.07Z"/>
      <g>
        <path class="cls-3" d="M18.2,16.5c-.03-1.36-2.73-10.78-3.35-12.24-.74-1.74-1.55-3.32-5.2-3.16-3.21.14-6,.63-7.96,3.9-1.49,2.5,2.66,14.52,3.78,15.58.41.39,1.3.57,2.35.64.5,1.51,1.21,3.57,1.53,4.23,0,0,3.97-.34,4.84-.46,1.46-.21,1.57-1.51,1.24-2.7-.14-.49-.35-1.11-.55-1.67,1.58-.4,2.42-1.01,2.86-1.8.39-.7.49-1.54.47-2.32"/>
        <path class="cls-4" d="M15.12,18.69c-2.06.22-2.98-.01-3.6-.55-.23-.2-.37-.48-.33-.79.12-1.01.22-1.6-.23-3.23l-2.08-7.97c-.77-3.36-3.55-3.74-5.82-2.43-1.55.89-2.29,2.48-1.85,4.43l2.75,10.5c.34,1.31.9,2.02,1.65,2.29.24.16.58.28.99.36.27.71.64,1.69.97,2.52.46,1.17.92,1.62,1.8,1.62s1.83-.65,1.49-1.97c-.17-.66-.38-1.4-.57-2.08,1.08-.06,2.05-.16,2.54-.19,3.97-.19,5.2-1.97,5.36-3.73,0,0-.76.95-3.05,1.2"/>
        <ellipse class="cls-1" cx="9.12" cy="23.49" rx=".93" ry="1.23" transform="translate(-4.16 2.08) rotate(-10.6)"/>
        <path class="cls-1" d="M3.41,7.99c.22-.14.29-.44.15-.66-.14-.22-.42-.29-.64-.16l-1.63.98.25.97,1.88-1.13ZM4.18,9.64c-.14-.23-.43-.3-.66-.16l-1.65.99.25.97,1.9-1.14c.22-.14.3-.43.16-.66M4.79,11.95c-.14-.23-.43-.3-.66-.16l-1.67,1,.25.97,1.91-1.15c.22-.14.3-.43.16-.66M5.39,14.25c-.14-.23-.43-.3-.66-.16l-1.68,1.01.25.97,1.93-1.16c.23-.14.3-.43.16-.66M6,16.56c-.14-.23-.43-.3-.66-.16l-1.7,1.02.25.97,1.95-1.17c.22-.14.3-.43.16-.66"/>
        <path class="cls-1" d="M8.15,4.39c-.97.34-2.99,1.63-2.99,1.63-.23.14-.3.43-.16.66.14.23.43.3.66.16,0,0,1.91-1.31,2.94-1.53.78-.17,2.61-.21,2.61-.21l-.26-.93s-2.33.05-2.79.22M8.84,6.79c-.98.33-3.02,1.58-3.02,1.58-.23.13-.31.42-.18.65,0,0,0,0,0,0,.09.15.24.24.41.24.08,0,.17-.02.25-.06,0,0,1.93-1.27,2.97-1.48.79-.15,2.61-.2,2.61-.2l-.24-.93s-2.33.05-2.8.21M9.54,9.19c-.99.31-3.05,1.52-3.05,1.52-.23.13-.31.42-.19.65.13.23.42.31.65.19,0,0,1.95-1.24,2.99-1.42.79-.14,2.62-.2,2.62-.2l-.22-.94s-2.34.05-2.8.2M10.25,11.58c-.99.29-3.08,1.46-3.08,1.46-.23.12-.32.41-.2.64,0,0,0,0,0,0,.08.15.24.24.4.26.08,0,.17-.01.25-.05,0,0,1.97-1.2,3.02-1.37.79-.12,2.62-.19,2.62-.19l-.21-.94s-2.34.05-2.81.19M10.95,13.98c-1,.27-3.11,1.41-3.11,1.41-.24.12-.33.41-.21.64,0,0,0,0,0,0,.08.15.23.25.39.26.08,0,.17,0,.25-.05,0,0,2-1.17,3.05-1.31.79-.11,2.63-.18,2.63-.18l-.19-.95s-2.34.05-2.81.18M14.81,4.17h-1.52l.26.93h1.6c-.08-.26-.3-.81-.34-.93M14.24,7.51l1.68.03c-.09-.33-.19-.63-.28-.92l-1.65-.04.25.93ZM14.93,9.92l1.67-.02c-.09-.31-.17-.61-.26-.92h-1.67l.25.94ZM15.62,12.34h1.65c-.08-.31-.17-.62-.25-.94h-1.65l.25.94ZM16.31,14.75h1.57c-.07-.29-.14-.61-.23-.95h-1.59l.25.95ZM8.96,3.18c-.41-.42-.45-.89-1.29-1.32-.93-.47-1.98-.15-1.98-.15,0,0,1.72-.67,2.61-.38.76.25,1.21.84,1.39,1.33.12.31.04.52-.19.65-.07.04-.32.09-.54-.13M10.47,2.22c-.53-1.12-1.57-1.08-1.57-1.08,0,0,1.1-.15,1.58.07.54.25.81.54,1.03,1.15.09.25.14.65-.3.7-.38.05-.58-.53-.72-.84M12.2,2.16c-.46-1-1.44-1.04-1.44-1.04,0,0,1.84-.09,2.4,1.29.1.24.08.55-.19.57-.39.04-.63-.52-.77-.82M10.25,21.41c.53-.27.96-.71,1.32-1.19.41-.53.67-.91.86-1.55.14-.49.19-1.31.14-1.81-.06-.56,0-.86.43-.92.26-.04.58.16.67.85.09.79.04,1.28-.26,2.13-.27.75-.72,1.29-1.32,1.8-.81.7-1.75.65-1.83.7M12.81,21.22s2.38-1.4,2.07-4.06c-.06-.48-.28-1.34.31-1.41.26-.03.68.23.71,1.32.07,2.29-1.09,3.31-1.58,3.63-.68.45-1.51.52-1.51.52"/>
        <path class="cls-1" d="M14.98,20.92s1.11-.69,1.53-1.84c.21-.58.33-1.07.3-1.97-.02-.48-.37-1.35.23-1.36.49,0,.66.79.69,1.24.06.88-.27,1.73-.78,2.54-.69,1.08-1.96,1.39-1.96,1.39"/>
        <path class="cls-1" d="M10.75,27.28l-.38-1.91,1.76-.16s.47-.58.44-1.08-.25-1.19-.25-1.19l1.81-.22s.28.96.22,1.41c-.06.47-.49.91-.49.91l.54,2.25h-3.65Z"/>
        <path class="cls-1" d="M4.99,6.68c.14.23.43.3.66.16,0,0,1.91-1.31,2.94-1.53,0,0,.02,0,.03,0-.14-.34-.3-.65-.49-.91-.98.35-2.98,1.63-2.98,1.63-.23.13-.3.43-.17.65,0,0,0,0,0,0M5.82,8.37c-.23.13-.31.42-.18.65,0,0,0,0,0,0,.09.15.24.24.41.24.08,0,.17-.02.25-.06,0,0,1.93-1.27,2.97-1.48,0,0,.01,0,.02,0l-.25-.97c-.08.02-.14.03-.19.05-.98.33-3.02,1.58-3.02,1.58M6.49,10.71c-.23.13-.31.42-.19.65.13.23.42.31.65.19,0,0,1.91-1.21,2.96-1.42l-.25-.97s-.09.02-.12.03c-.99.31-3.05,1.52-3.05,1.52M7.17,13.05c-.23.12-.32.41-.2.64,0,0,0,0,0,0,.08.15.24.24.4.26.08,0,.17-.01.25-.05,0,0,1.87-1.14,2.94-1.35l-.26-.97s-.03,0-.05.01c-.99.29-3.08,1.46-3.08,1.46M10.93,13.99c-1,.28-3.09,1.4-3.09,1.4-.24.12-.33.41-.21.64,0,0,0,0,0,0,.08.15.23.25.39.26.08,0,.17,0,.25-.05,0,0,1.75-1.02,2.84-1.27-.04-.28-.09-.56-.14-.84l-.04-.14Z"/>
        <path class="cls-2" d="M7.92,4.27c-.77-1.03-1.15-.82-1.68-1.06-.46-.21-.21-.47,0-.58.31-.16.89-.18,1.28.04.37.21.76.4.93,1.32.07.37-.37.5-.53.28M9.67,5.73c-.15-.43-.48-.57-.89-.44-.19.06-.22.2-.1.59.23.71.29.93.69.82.34-.09.46-.48.3-.97M9.57,7.66c-.28.07-.35.21-.2.67.17.54.48.46.62.42.21-.07.39-.3.34-.65-.03-.19-.15-.58-.75-.43"/>
        <path class="cls-1" d="M10.25,21.41s.02,0,.04,0c0,0-.02,0-.03,0,0,0,0,0-.01,0"/>
        <path class="cls-1" d="M13.4,18.92c.02-.05.03-.1.05-.15-.4-.02-.72-.07-1-.14v.05c-.2.64-.47,1.01-.88,1.55-.36.47-.79.91-1.31,1.19,0,0,.02,0,.03,0,.2-.03,1.05-.05,1.79-.69.6-.51,1.05-1.05,1.32-1.8M15.74,18.6c-.19.03-.39.07-.61.09-.13.01-.26.03-.38.03-.48,1.64-1.94,2.5-1.94,2.5,0,0,.83-.07,1.51-.52.36-.24,1.09-.86,1.42-2.1"/>
        <path class="cls-1" d="M14.98,20.92s.16-.04.4-.14c-.12.04-.23.08-.36.11-.03.02-.04.03-.04.03"/>
        <path class="cls-1" d="M16.95,19.52c.33-.52.58-1.06.71-1.61-.22.14-.53.29-.92.43-.05.25-.12.48-.21.73-.38,1.02-1.29,1.67-1.49,1.81.12-.03.24-.07.36-.11.43-.18,1.12-.55,1.56-1.25"/>
      </g>
    </g>
  </g>
</svg>