<?xml version="1.0" encoding="UTF-8"?>
<svg id="Layer_2" data-name="Layer 2" xmlns="http://www.w3.org/2000/svg" viewBox="0 0 17.87 11.66">
  <defs>
    <style>
      .cls-1 {
        fill: #583529;
      }

      .cls-2 {
        fill: #d4ab88;
      }

      .cls-3 {
        fill: #b78b60;
      }

      .cls-4 {
        fill: #7c533e;
      }
    </style>
  </defs>
  <g id="Calque_1" data-name="Calque 1">
    <g>
      <path class="cls-3" d="M7.98,11.44c.54.38,1.29.25,1.67-.29.13-.19.09-.45-.1-.58l-.96-1.01,2.19,1.53c.35.25.83.16,1.08-.19,0,0,0,0,0,0,.25-.35.16-.84-.19-1.08h0s-1.86-1.71-1.86-1.71l2.79,1.95c.35.25.83.16,1.08-.19,0,0,0,0,0,0,.25-.35.16-.84-.19-1.08h0s-2.47-2.11-2.47-2.11l3.04,2.13c.35.25.83.16,1.08-.19,0,0,0,0,0,0,.25-.35.16-.84-.19-1.08h0S1.92,1.52,1.92,1.52L.12,4.38c-.2.31-.15.73.14.98l4.04,3.46c.18.16.38.31.57.45l3.11,2.18Z"/>
      <path class="cls-2" d="M14.92,7l-5.86-4.23-.03-.04.03-.04.03-.03.44.24c.5.32,1.63.8,2.49.8.59,0,.94-.22,1.05-.65.07-.4-.2-.77-.6-.84-.52-.08-1.02-.27-1.45-.57l-.29-.19c-.32-.22-.69-.47-.96-.63-.34-.2-.7-.3-1.12-.3-.62,0-1.25.22-1.86.43l-.66.23c-.28.1-.58.14-.88.14-.8,0-1.58-.3-2.34-.6l-.08-.03c-.32-.12-.69,0-.87.29L.16,3.84c-.19.3-.13.68.13.91l4.04,3.46c.18.16.37.3.57.44l3.2,2.24c.47.33,1.12.21,1.44-.25,0,0,0,0,0,0,.13-.19.09-.45-.1-.58l-.95-.67c-.1-.07-.12-.21-.05-.31,0,0,0,0,.01-.01.07-.09.2-.1.29-.04l2.06,1.44c.33.23.78.15,1.01-.18s.15-.78-.18-1.01h0l-1.93-1.35c-.1-.07-.12-.21-.05-.31,0,0,0,0,.01-.01.07-.09.2-.1.29-.04l2.66,1.86c.33.23.78.15,1.01-.18s.15-.78-.18-1.01l-2.52-1.77c-.1-.07-.12-.2-.06-.3,0,0,0-.01.01-.02.07-.08.18-.09.26-.03l2.93,2.05c.33.23.78.15,1.01-.18.23-.33.15-.78-.18-1.01"/>
      <path class="cls-1" d="M8.04,10.2c-.04.14-.11.26-.2.35l-.52.52c-.19.2-.48.27-.75.21-.42-.11-.66-.53-.56-.95.03-.13.1-.26.2-.35l.52-.52c.19-.2.48-.27.75-.21.42.11.66.53.56.95,0,0,0,0,0,0M2.57,7.65l.78-.78c.3-.3.3-.8,0-1.1-.07-.07-.14-.12-.23-.16-.29-.13-.64-.07-.87.16l-.78.78c-.3.3-.3.8,0,1.1.07.07.15.12.23.16.29.13.64.07.87-.16M5.27,7.67c.31-.29.33-.79.04-1.1-.29-.31-.79-.33-1.1-.04-.01.01-.03.03-.04.04l-1.56,1.55c-.31.29-.33.79-.04,1.1.29.31.79.33,1.1.04.01-.01.03-.03.04-.04l1.56-1.55ZM6.44,9.23c.3-.3.3-.8,0-1.1-.13-.13-.3-.21-.49-.22-.23-.02-.45.07-.61.23l-1.04,1.03c-.3.3-.3.8,0,1.1.13.13.3.21.49.23.24.02.45-.07.61-.23l1.04-1.03ZM15.02,7.08l.33-.28-3.58-5.63-6.36,1.03c-.43.07-.71.48-.64.9h0c.34,1.4,3.11.36,4.33-.31l5.93,4.29Z"/>
      <path class="cls-4" d="M8.04,9.68c-.04.14-.11.26-.2.35l-.52.52c-.19.2-.48.27-.75.21-.42-.11-.66-.53-.56-.95.03-.13.1-.26.2-.35l.52-.52c.19-.2.48-.27.75-.21.42.11.66.53.56.95,0,0,0,0,0,0M2.57,7.13l.78-.78c.3-.3.3-.8,0-1.1-.07-.07-.14-.12-.23-.16-.29-.13-.64-.07-.87.16l-.78.78c-.3.3-.3.8,0,1.1.07.07.15.12.23.16.29.13.64.07.87-.16M5.27,7.16c.31-.29.33-.79.04-1.1-.29-.31-.79-.33-1.1-.04-.01.01-.03.03-.04.04l-1.56,1.55c-.31.29-.33.79-.04,1.1.29.31.79.33,1.1.04.01-.01.03-.03.04-.04l1.56-1.55ZM6.44,8.71c.3-.3.3-.8,0-1.1-.13-.13-.3-.21-.49-.22-.23-.02-.45.07-.61.23l-1.04,1.03c-.3.3-.3.8,0,1.1.13.13.3.21.49.23.24.02.45-.07.61-.23l1.04-1.03ZM17.61,4.85c.28-.25.34-.66.14-.98h0s-1.8-3.38-1.8-3.38c-.2-.31-.59-.44-.93-.31-1.03.4-2.16.86-3.26.49l-.57-.2c-1.01-.35-2.11-.76-3.11-.15-.36.21-.9.59-1.25.82-.43.29-.92.48-1.43.56-.42.07-.71.47-.64.89,0,0,0,0,0,0,.32,1.3,2.75.47,4.06-.19.17-.08.37-.07.52.04l6.01,4.36,2.27-1.96Z"/>
    </g>
  </g>
</svg>