<?xml version="1.0" encoding="UTF-8"?>
<svg id="Layer_2" data-name="Layer 2" xmlns="http://www.w3.org/2000/svg" viewBox="0 0 17.2 16.96">
  <defs>
    <style>
      .cls-1 {
        fill: #34484c;
      }

      .cls-1, .cls-2, .cls-3 {
        fill-rule: evenodd;
      }

      .cls-2 {
        fill: #089083;
      }

      .cls-3 {
        fill: #02786a;
      }
    </style>
  </defs>
  <g id="Calque_1" data-name="Calque 1">
    <g>
      <path class="cls-2" d="M10.65.23h-4.09S3.85.04,0,5.63c0,0,1.32,2.6,2.83,2.28,0,0,1.01-.99,1.01.03l-.57,6.09s-.25,2.15,1.13,2.15c0,0,2.85,1.15,4.19.66,1.34.49,4.19-.66,4.19-.66,1.39,0,1.13-2.15,1.13-2.15l-.57-6.09c0-1.01,1.01-.03,1.01-.03,1.51.32,2.83-2.28,2.83-2.28C13.36.04,10.65.23,10.65.23"/>
      <g>
        <path class="cls-3" d="M10.65.23h-.56c.45.01,3,.33,6.48,5.4,0,0-.98,1.93-2.22,2.26l.02.02c1.51.32,2.83-2.28,2.83-2.28C13.36.04,10.65.23,10.65.23M13.33,7.94c0-.13.02-.22.04-.29-.29-.2-.68-.33-.68.29l.57,6.09s.25,2.15-1.13,2.15c0,0-1.66.67-3.03.77,1.44.13,3.67-.77,3.67-.77,1.38,0,1.13-2.15,1.13-2.15l-.57-6.09ZM1.96,5.63C5.8.04,8.51.23,8.51.23h1.07-3.02S3.85.04,0,5.63c0,0,1.32,2.6,2.83,2.28,0,0,.32-.31.6-.4-.87-.67-1.48-1.87-1.48-1.87"/>
        <path class="cls-3" d="M6.37,16.17c-1.38,0-1.13-2.15-1.13-2.15l.57-6.09c0-1.01-1.01-.03-1.01-.03-.33.07-.66,0-.96-.15,0,.05.01.11.01.18l-.57,6.09s-.25,2.15,1.13,2.15c0,0,2.85,1.15,4.19.66.27.1.61.13.98.12-1.41-.05-3.21-.78-3.21-.78"/>
      </g>
      <g>
        <path class="cls-1" d="M.35,5.27s-.04-.03-.06-.04c-.09.13-.19.27-.28.4-.14.21,1.32,2.6,2.83,2.28,0,0,.16-.16.35-.28-1.41.17-2.64-1.99-2.84-2.37M16.86,5.27s.04-.03.06-.04c.09.13.19.27.28.4,0,0-1.32,2.6-2.83,2.28,0,0-.16-.16-.35-.28,1.41.17,2.64-1.99,2.84-2.37M8.6,1.11c-1.23,0-2.26-.34-2.56-.8-.05.09-.09.18-.09.27,0,.59,1.19,1.08,2.65,1.08s2.65-.48,2.65-1.08c0-.09-.03-.18-.09-.27-.3.46-1.33.8-2.56.8"/>
        <path class="cls-1" d="M8.6.24c1.23,0,2.26.15,2.56.36.05-.04.09-.08.09-.12,0-.27-1.18-.48-2.65-.48s-2.65.22-2.65.48c0,.04.03.08.09.12.3-.21,1.33-.36,2.56-.36"/>
      </g>
    </g>
  </g>
</svg>