<?xml version="1.0" encoding="UTF-8"?>
<svg id="Layer_2" data-name="Layer 2" xmlns="http://www.w3.org/2000/svg" viewBox="0 0 17.78 16.6">
  <defs>
    <style>
      .cls-1 {
        fill: #568cc2;
      }

      .cls-2 {
        fill: #f2aa85;
      }

      .cls-3 {
        fill: #f8dd7c;
      }

      .cls-4 {
        fill: #0062aa;
      }

      .cls-5 {
        fill: #e9475f;
      }

      .cls-6 {
        fill: #258bc2;
      }

      .cls-7 {
        fill: #e32d30;
      }

      .cls-8 {
        fill: #fff;
      }

      .cls-9 {
        fill: #2697d3;
      }

      .cls-10 {
        fill: #ad335f;
      }

      .cls-11 {
        fill: #ea6f31;
      }

      .cls-12 {
        fill: #b3c75e;
      }
    </style>
  </defs>
  <g id="Calque_1" data-name="Calque 1">
    <g>
      <path class="cls-8" d="M10.26,16.6c-1.29,0-3.84-.35-6.35-2.71C1.38,11.51.03,9,0,6.63c-.01-1,.27-2.23.69-3.05.1-.23.21-.44.33-.64C2.17,1.16,4.49,0,6.95,0c1.43,0,2.87.37,4.26,1.11,4.8,2.53,6.52,6.84,6.57,8.42,0,.15,0,.28-.02.39v.02c0,.08,0,.15,0,.21-.19,1.63-1.57,2.34-2.7,2.45-.15.01-.28.02-.42.02-1.04,0-1.76-.39-2.75-.92l-.14-.08c-.21-.11-.43-.2-.63-.25,0,0,0,0,0,.01.47.7,1.15,1.12,1.69,1.46.4.25.74.46.94.74.03.04.05.07.07.1.11.17.19.36.21.52.18,1.63-1.16,1.95-2.33,2.24-.23.06-.73.15-1.43.15Z"/>
      <path class="cls-10" d="M10.71,2.38C6.67.25,3,1.77,1.67,3.85c-.43.68-.74,1.91-.73,2.89.02,2.01,1.14,4.26,3.54,6.52,2.96,2.78,5.98,2.54,6.94,2.31,1.21-.29,2.02-.55,1.89-1.67-.02-.15-.14-.42-.33-.53-.61-.37-1.9-.57-2.5-1.46-.88-1.31.21-1.37,1.26-.81,1.12.6,1.76.97,2.88.87.82-.08,2.02-.57,2.18-1.96.15-1.26-1.69-5.27-6.1-7.6M12.36,9.22c-.31.47-1.07.31-1.57-.13s-.57-1.18-.24-1.48c.33-.29.95-.23,1.45.22.5.45.6,1.02.36,1.39"/>
      <path class="cls-2" d="M10.89,1.9C6.85-.23,3.17,1.42,1.84,3.49c-1.33,2.08-.75,5.92,2.82,9.28,2.96,2.78,5.98,2.54,6.94,2.31,1.21-.29,2.06-.87,1.53-1.6-.37-.51-1.68-.89-2.47-2.07-.88-1.31.21-1.37,1.26-.81,1.12.6,1.76.97,2.88.87.82-.08,2.07-.71,2.03-2-.04-1.27-1.54-5.23-5.95-7.56M12.75,9.18c-.38.41-1.18.3-1.79-.25-.61-.54-.8-1.31-.43-1.72.38-.41,1.18-.3,1.79.25s.8,1.31.43,1.72"/>
      <path class="cls-8" d="M6.78,11.02c.15-.39,1.23-.81,2.23-.11.28.2.63.7.59,1.34-.12,2.07-3.52.56-2.82-1.23"/>
      <path class="cls-9" d="M3.62,7.51c.35-.56,1.19-.62,1.93-.14.66.43,1.21,1.48.4,2.17-.43.37-1.19.14-1.65-.22-.56-.43-1.05-1.21-.68-1.81"/>
      <path class="cls-3" d="M8.11,2.66c.11-.44.85-.52,1.38-.32.91.34,1.33,1.25.99,1.75-.49.74-1.57.48-1.97.06-.69-.71-.49-1.12-.4-1.49"/>
      <path class="cls-12" d="M13.4,4.82c.73.33.83.86.69,1.25-.09.24-.27.56-.63.59-.62.05-.7-.46-1.14-.6-.37-.12-.52-.62-.38-.96.13-.31.53-.7,1.46-.27"/>
      <path class="cls-1" d="M9.34,12.65c-.18.17-.82.37-1.62-.13-.27-.17-.53-.42-.68-.79-.12-.29-.09-.57-.04-.7.15-.36.37-.42.37-.42-.23-.02-.66.29-.73.68-.02.12-.18.9.85,1.61.89.61,2.2.55,2.11-.67-.04.15-.15.32-.27.43"/>
      <path class="cls-4" d="M6.33,8.52c-.03.47-.58.72-.89.72-.87,0-1.65-.55-1.71-1.52,0-.17.08-.43.08-.43-.12.05-.28.3-.31.44-.2.84.64,1.82,1.54,2.02.45.1,1.02-.05,1.23-.46.15-.29.12-.54.06-.77"/>
      <path class="cls-11" d="M9.38,4.15c-.59-.07-.92-.45-1.01-.54-.24-.25-.38-.49-.3-.84.03-.11.09-.26.17-.34-.1.03-.25.24-.3.35-.05.11-.23.53.16,1.05.24.32.66.69,1.29.77.44.06.76-.1,1.02-.35.18-.18.26-.57.15-.78.02.15-.26.78-1.19.68"/>
      <path class="cls-6" d="M14.25,5.76c-.05-.2-.21-.41-.22-.42.07.13.2.52-.08.9-.14.19-.57.42-1.07.02-.15-.12-.27-.24-.53-.34-.68-.25-.38-.94-.15-1.15-.19.1-.35.27-.42.53-.1.37.14.75.51.94.42.21.55.62,1.12.62.03,0,.06,0,.09,0,.39-.03.55-.18.67-.36.14-.23.15-.49.08-.73"/>
      <path class="cls-7" d="M3.9,3.24c.3-.3.83-.61,1.59-.21.46.24,1,.52.76,1.5-.15.61-1.03.93-1.77.25-.29-.27-1.4-.73-.58-1.54"/>
      <path class="cls-5" d="M6.42,4.4c0-.23-.11-.51-.15-.61,0,.14.13.49-.42.95-.19.16-.54.28-.92.13-.19-.08-.47-.4-.67-.48-.74-.3-.42-1.09-.32-1.2-.17.12-.31.31-.36.58-.07.36,0,.7.49,1.08,1.4,1.1,1.82.44,1.98.27.19-.21.37-.48.38-.73"/>
      <path class="cls-8" d="M9.17,2.39c-.19-.09-.75-.06-.86.4-.06.28.14.56.33.53.22-.04.1-.38.23-.47.2-.15.57-.32.29-.45M5.08,3.06c-.19-.13-.8-.13-.99.34-.11.28.06.61.27.6.24,0,.12-.28.32-.46.25-.22.67-.31.4-.48M4.99,7.3c-.18-.12-.72-.16-.94.26-.16.31.06.65.26.64.22-.01.15-.36.29-.44.22-.12.65-.3.4-.46M8.07,10.82c-.19-.09-.75-.06-.86.4-.06.28.14.56.33.53.22-.04.1-.38.23-.47.2-.15.56-.32.29-.45M13.05,4.86c-.17-.12-.73-.2-.91.24-.11.26.04.58.23.58.22,0,.17-.35.31-.42.22-.11.61-.22.37-.39"/>
    </g>
  </g>
</svg>