<?xml version="1.0" encoding="UTF-8"?>
<svg id="Layer_2" data-name="Layer 2" xmlns="http://www.w3.org/2000/svg" viewBox="0 0 18.79 16.9">
  <defs>
    <style>
      .cls-1 {
        fill: #3600b2;
      }

      .cls-2 {
        fill: #9f8bd2;
      }

      .cls-3 {
        fill: #fff;
      }

      .cls-4 {
        fill: #ede1e2;
      }

      .cls-5 {
        fill: #ddccce;
      }

      .cls-6 {
        fill: #543b91;
      }
    </style>
  </defs>
  <g id="Calque_1" data-name="Calque 1">
    <g>
      <path class="cls-6" d="M18.46,5.97c-1.64-1.74-3.97,1.55-8.93,2.91-1.84.5-3.28,2.32-5.48,2.51-.9.08-2.54-2.3-3.41-1.75-.45.28-.56,1.02.01,1.47l6.47,5.69s.33.28,1.23-.09c.24.03,3.5-1.89,5.08-4.98.38-.74.87-1.38,1.39-1.94,1.71-1.72,3.72-2.54,3.72-2.54.23-.26.26-.51.21-.71-.03-.34-.3-.58-.3-.58"/>
      <path class="cls-2" d="M5.48,4.78C3.93,7.8.69,9.62.69,9.62c-.56.64.08,1.2.08,1.2l6.4,5.58s.32.28,1.2-.08c0,0,3.24-1.81,4.78-4.84,1.59-3.12,5.1-4.56,5.1-4.56.56-.64-.08-1.2-.08-1.2L11.77.13s-.32-.28-1.2.08c0,0-3.51,1.44-5.1,4.56"/>
      <circle class="cls-1" cx="9.46" cy="7.72" r="2.89"/>
      <path class="cls-6" d="M7.92,15.89c-.46.07-.65-.07-.68-.1L1.49,10.85s-.3-.25-.33-.62c-.02-.22.07-.43.25-.63l.03-.02s2.99-1.8,4.41-4.43l.12.06-.12-.06C7.34,2.38,10.42.81,10.45.8c.87-.35,1.21-.09,1.25-.06l5.69,4.99s.3.25.33.62c.02.22-.07.43-.25.63l-.05.03s-3.06,1.28-4.51,3.97c-1.45,2.68-4.37,4.73-4.4,4.75-.23.09-.43.15-.59.17M7.42,15.6s.27.18.97-.1c0,0,2.88-2.01,4.3-4.64,1.42-2.64,4.29-3.94,4.61-4.08.12-.14.17-.27.16-.41-.02-.25-.23-.44-.23-.44L11.53.93s-.27-.18-.97.1c-.02.01-3.02,1.54-4.47,4.24-1.39,2.58-4.23,4.36-4.49,4.52-.12.14-.18.28-.17.42.02.25.23.44.23.44l5.75,4.95Z"/>
      <path class="cls-4" d="M18.13,14.68h.01c.03-.05.05-.1.08-.14.02-.03.04-.06.05-.09.01-.03.03-.06.04-.09.56-1.25-.21-3.1-1.9-4.33s-3.68-1.42-4.7-.51c-.02.02-.05.04-.07.06-.02.02-.05.05-.07.08-.03.04-.07.07-.1.11,0,0,0,.01,0,.02,0,0-.01.01-.02.02h0c-.43.63-.31,1.49.29,1.93.6.44,1.45.3,1.93-.3h0s-.02.03-.03.04c-.46.63-.34,1.51.27,1.96.61.45,1.49.3,1.95-.33,0-.01.01-.02.02-.04h0c-.43.64-.31,1.49.29,1.93.6.44,1.45.3,1.92-.3h0s0-.01.01-.02"/>
      <path class="cls-5" d="M11.75,11.75c.54.4,1.28.32,1.77-.13.17-.42.18-.8.16-.92-1.01,1.03-2.17.34-2.47-.14-.03.45.16.9.54,1.19M15.84,13.16c.12-.24.21-.47.24-.62-.63.78-2.09.5-2.68-.49-.11.52.07,1.07.52,1.4.6.44,1.45.31,1.92-.29M18.12,14.72v-.02s.02,0,.02-.01c.03-.04.05-.09.08-.13.02-.03.04-.06.05-.09.01-.03.03-.06.04-.09.03-.06.03-.12.05-.18-1.22.79-2.35-.06-2.7-.51-.08.5.1,1.02.53,1.33.6.44,1.45.31,1.92-.3h0Z"/>
      <path class="cls-4" d="M6.94,5.73h.01c.03-.05.05-.1.08-.14.02-.03.04-.06.05-.09.01-.03.03-.06.04-.09.56-1.25-.22-3.1-1.9-4.33C3.54-.15,1.54-.34.52.57c-.02.02-.05.04-.07.06-.02.02-.05.05-.07.08-.03.04-.07.07-.1.11v.02s-.03.02-.03.02h0c-.43.63-.31,1.49.29,1.93.6.44,1.45.31,1.92-.3h0s-.02.03-.03.04c-.46.63-.34,1.51.27,1.96s1.49.3,1.95-.33c0-.01.01-.02.02-.04h0c-.43.64-.31,1.49.29,1.93.6.44,1.45.31,1.92-.3h0s.01-.02.01-.02Z"/>
      <path class="cls-5" d="M.55,2.78c.54.4,1.28.32,1.77-.13.17-.42.18-.8.16-.92C1.46,2.76.31,2.07,0,1.6c-.03.45.16.91.54,1.19M4.64,4.19c.12-.24.21-.47.24-.62-.63.78-2.09.5-2.68-.49-.11.52.07,1.07.52,1.4.6.44,1.45.31,1.92-.29M6.93,5.75s0-.01.01-.02h.01c.03-.05.05-.1.08-.14.02-.03.04-.06.05-.09.01-.03.03-.06.04-.09.03-.06.03-.12.05-.18-1.22.79-2.35-.06-2.7-.51-.08.5.1,1.02.53,1.33.6.44,1.45.31,1.92-.3h0Z"/>
      <path class="cls-3" d="M9.44,8.83c-.09.05-.09-.1-.07-.17.03-.11.31-.45.3-.48-.05-.02-.28-.19-.29-.19-.03,0-.15.2-.33.12-.19-.09-.16-.26-.24-.3-.13-.02-1.02-.06-1.05-.11-.07-.08.24-.38.32-.45.06-.06.14-.09.19-.17-.13-.12-.36-.27-.11-.39-.48-.24-.56.46-.53.79,0,.08.03.31.11.34l.69.03c.23.14.09.6-.17.59-.13,0-.37-.16-.5-.22-.06,0,.02.49-.03.58-.05.1-.18.15-.29.15-.64-.03-.08-.73-.05-1.03,0-.07-.09-.42-.1-.55-.03-.31-.01-.56.14-.84.3-.57,1.01-.47,1.45-.13.14-.16.28-.39.44-.53.03-.03.09-.06.13-.04.09.05.15.94.25,1.06.13.03.22.05.28.19.09.18-.09.26-.09.32,0,.02.17.25.21.26.05.02.26-.19.33-.24.09-.06.17-.11.28-.11.02,0,.03.07.02.07l-.38.42c-.1.1.12.37.18.36.03,0,.34-.35.49-.21-.03.1-.31.34-.3.4,0,.03.16.17.17.17.02,0,.28-.26.41-.13-.04.06-.26.26-.25.32.03.11.25.12.28.21.04.12-.23.41-.35.38-.11-.03-.07-.14-.12-.21-.15-.17-.27.11-.38.2-.17-.09.1-.4.1-.42,0-.02-.14-.13-.19-.14-.07,0-.32.27-.39.34-.15-.15.17-.46.16-.53,0-.04-.28-.22-.35-.14-.08.09-.31.37-.38.42Z"/>
    </g>
  </g>
</svg>