<?xml version="1.0" encoding="UTF-8"?>
<svg id="Layer_2" data-name="Layer 2" xmlns="http://www.w3.org/2000/svg" viewBox="0 0 10.6 10.6">
  <defs>
    <style>
      .cls-1 {
        fill: #ccd6dd;
      }

      .cls-2 {
        fill: #9a4e1c;
      }

      .cls-3 {
        fill: #662113;
      }
    </style>
  </defs>
  <g id="Calque_1" data-name="Calque 1">
    <g>
      <path class="cls-2" d="M9.42,2.36h-1.77v-1.18c0-.65-.53-1.18-1.18-1.18h-2.36c-.65,0-1.18.53-1.18,1.18v1.18h-1.77c-.65,0-1.18.53-1.18,1.18v5.89c0,.65.53,1.18,1.18,1.18h8.25c.65,0,1.18-.53,1.18-1.18V3.53c0-.65-.53-1.18-1.18-1.18M3.53,1.77c0-.33.26-.59.59-.59h2.36c.33,0,.59.26.59.59v.59h-3.53v-.59Z"/>
      <path class="cls-3" d="M10.6,5.89c0,.65-.53,1.18-1.18,1.18H1.18c-.65,0-1.18-.53-1.18-1.18v-2.36c0-.65.53-1.18,1.18-1.18h8.25c.65,0,1.18.53,1.18,1.18v2.36Z"/>
      <path class="cls-2" d="M10.6,5.3c0,.65-.53,1.18-1.18,1.18H1.18c-.65,0-1.18-.53-1.18-1.18v-1.77c0-.65.53-1.18,1.18-1.18h8.25c.65,0,1.18.53,1.18,1.18v1.77Z"/>
      <path class="cls-1" d="M6.48,5.3c0,.33-.26.59-.59.59h-1.18c-.33,0-.59-.26-.59-.59s.26-.59.59-.59h1.18c.33,0,.59.26.59.59"/>
    </g>
  </g>
</svg>