<?xml version="1.0" encoding="UTF-8"?>
<svg id="Layer_2" data-name="Layer 2" xmlns="http://www.w3.org/2000/svg" viewBox="0 0 72.17 91.3">
  <defs>
    <style>
      .cls-1 {
        fill: #fff;
      }
    </style>
  </defs>
  <g id="Calque_1" data-name="Calque 1">
    <g>
      <path class="cls-1" d="M72.17,14.28v3.14c-2.29-.84-4.77-1.39-7.5-1.58-15.73-1.07-29.4,7.17-40.85,17-5.91,5.07-18.35,18.9-21.47,25.86-.66,1.46-.65,2.68-1.47,4.2-.26.48-.55.93-.88,1.36v-6.48c1.52-1.83,2.86-3.41,3.78-4.53,2.73-3.34,4.55-7.18,6.89-10.5,2.3-3.26,12.06-14.26,15.14-16.01,1.03-.59,2.06-.26,3.21-.84,1.77-.89,4.91-4.46,7.16-5.79s6.52-3.31,9-4.34c9.04-3.78,18.46-4.24,26.99-1.49Z"/>
      <path class="cls-1" d="M5.62,91.3c.77-1.3,1.55-2.61,2.45-3.82,1.38-1.85,3.23-3.41,4.55-5.16,11.44-15.22,20.24-34.65,35.26-46.87,2.89-2.35,4.93-3.52,8.9-3.03.21-2.74-4.19-2.18-5.99-1.74-7.7,1.88-19.51,16.8-24.03,23.3-5.66,8.12-10.85,16.7-16.43,24.84-2.71,3.94-5.52,7.91-7.99,12.02l3.28.46Z"/>
      <path class="cls-1" d="M69.74,67.83c-.21,1.65.12,3.4-.11,5.15-.85,6.35-3.13,12.44-5.67,18.32h-3.6l.28-.61c4.62-12.28,7.22-27.68,7.5-41.07.05-2.36-2.09-5.35-4.21-6.34-2.9-1.36-2.08-.4-4.02.56-.78.39-1.52.17-2.33.91-1.56,1.4-2,4.14-2.42,6.07-.83,1.25-1.56-1.87-1.61-2.42-.3-3.06.95-4.65,3.27-6.43,2.58-2,4.4-2.43,7.53-1.13,2.78,1.16,6.73,6.61,7.02,9.57.53,5.34-.98,12.05-1.63,17.42Z"/>
      <path class="cls-1" d="M72.17,38.85v2.61c-.51-.55-1.13-1.12-1.93-1.74-.84-.66-3.27-.78-2.33-2.45,1.59.24,3.01.79,4.26,1.58Z"/>
      <path class="cls-1" d="M67.91,91.3c1.39-4.42,3.05-8.77,4.26-13.24v8.98c0,2.35-1.91,4.26-4.26,4.26Z"/>
      <path class="cls-1" d="M53.12,63.31c-.18,4.16-4.76,18.54-6.93,22.24-1.2,2.05-2.95,3.84-4.5,5.75h-6.27c1.16-1.18,2.42-2.28,3.33-3.48,1.12-1.47,3.13-4.81,4.03-6.49,3.29-6.1,5.84-13.14,8.95-19.38,1.09-.12,1.44.34,1.39,1.36Z"/>
      <path class="cls-1" d="M16.9,91.3c6.65-7.9,12-16.48,17.3-25.43,1.78-3.01,3.15-6.88,4.92-9.64,1.82-2.84,5.25-6.32,6.91-9.27.55-.97.39-2.93,1.85-3.82-.76-.68-1.5.28-2.01.82-1.44,1.5-2.86,4.66-4.03,6-.59.66-1.35.14-2.21,2.25-3.41,8.33-9.69,16.92-14.67,24.66-2.27,3.53-4.69,8.05-7.24,11.36-.86,1.1-2.02,2.05-3.07,3.07h2.25Z"/>
      <path class="cls-1" d="M4.13,77.04l-4.13,9.1v-8.8c.1-.09.19-.18.29-.27,1.23-1.11,3.73-2.57,3.84-.03Z"/>
      <path class="cls-1" d="M72.17,22.99v2.31c-1.65-.94-3.44-1.82-5.4-2.66-1.78-.77-4.41-1.2-6.07-2.04-.6-.3-2.65-2.07-.48-1.94,2.5.16,7.38,2.07,11.95,4.33Z"/>
      <path class="cls-1" d="M72.16,4.14c-.65-.25-1.3-.49-1.95-.72-.71-.24-5.34-.98-5.34-1.55.02-1.68,4.31-.89,5.37-.57.31.09.63.18.97.27.58.7.93,1.59.95,2.57Z"/>
      <path class="cls-1" d="M25.17,91.3c-.23-.21-.54-.3-.95-.22-.09.02-.15.1-.19.22h1.14Z"/>
      <path class="cls-1" d="M46.33,91.3c.44-.42.9-.78,1.35-1.03.1.36.13.7.11,1.03h-1.46Z"/>
      <path class="cls-1" d="M61.03,9.76c-2.69.65-5.91.47-8.78.93-10.94,1.77-23.31,8.04-31.48,15.46-3.59,3.26-6.35,7.39-9.9,10.72-3.69,3.46-7.32,7.11-10.87,10.91v-4.85c3.04-3.43,6.12-6.81,9.24-10.11,11.56-12.23,23.32-23.33,41.28-24.67,1.87-.14,10.05-.25,11.12.81.68.69-.13.68-.61.8Z"/>
      <path class="cls-1" d="M23.34,0c-5.02,2.72-10.14,5.73-15.91,8.76-2.31,1.22-4.85,2.37-7.43,3.57v-3.22c2.92-1.43,5.85-2.82,8.66-4.38C11.45,3.17,14.14,1.57,16.79,0h6.55Z"/>
      <path class="cls-1" d="M49.51,3.1c-2.09.55-4.8.61-6.98,1.11-12.93,3.02-25.87,12.72-36.07,21.21-1.82,1.51-4.09,3.72-6.46,6.17v-3.62C11.79,15.85,25.59,7.5,42.71,2.36c.63-.19,1.12-.85,1.81-1.01,2.43-.55,6.05-.43,8.62-.89,1.05,1.07-2.92,2.45-3.63,2.64Z"/>
      <path class="cls-1" d="M37.6,0c-.29.24-.63.46-1.05.66-5.4,2.52-9.42,3.34-14.86,6.58C14.38,11.59,6.9,16.51,0,21.21v-3.08c.47-.43.92-.56,2.53-1.75,6.35-4.71,12.84-9.14,20-12.14,2.4-1,4.51-1.26,7.14-3.18,1.14-.84-.58-.47-.4-.8.06-.1.12-.18.18-.26h8.15Z"/>
      <path class="cls-1" d="M0,4.72c.46-.43.91-.85,1.39-1.19,1.58-1.14,3.4-2.33,5.4-3.53h-2.54c-.06,0-.12,0-.17.01-.14.15-.3.3-.48.46C2.49,1.46,1.3,2.39.11,3.32H.11S0,4.72,0,4.72Z"/>
      <path class="cls-1" d="M30.29,36.07c-2.14,2.11-5.92,3.99-7.9,6.26-2.54,2.91-5.75,9.39-7.91,12.72-.92,1.41-3.91,4.47-4.41,5.71-.32.81-.1,1.64-.43,2.41-.44,1.03-3.82,3.56-4.45,5.29-.36.97.33,1.84.21,2.81.6.6,3.95-2.35,4.23-2.85.34-.6.1-1.4.44-1.99,1.97-3.37,4.69-5.02,6.83-8.14,2.28-3.34,4.21-6.9,6.31-10.29,1.5-2.43,5.31-5.99,7.28-8.5.46-.58,1.37-2.71,1.78-3.06.65-.55,2.21-.49,3.28-1.18,1.94-1.25,5.01-4.75,6.45-6.5,1.74-2.11,7.23-2.46,9.93-3.22l-1.21-1.21,2.02.4v-1.62c-.91.71-1.63.99-2.83.81l.4-1.21-2.42.41.8.8c-1.45.56-3.44-.71-3.64,1.62l1.61.4c-1.13-.2-2.11.55-3.08.69-.61.08-1.35-.4-2.28-.22-.53.1-3.6,2.11-4.32,2.59-1.44.97-1.32,2.28-3.67,1.39.86,1.6-1.85,4.51-3.03,5.67Z"/>
      <path class="cls-1" d="M33.72,84.41c2.26-2.51,3.41-5.86,5.1-8.65,3.27-5.4,8.45-13.03,9.47-19.26.16-.99-.39-.41-.81-.2-.05-.55-.62-3.04-.82-3.24-1.09-1.08-.51,1.37-.57,1.63-.44,1.7-5.27,12.07-6.28,13.44-.38.52-1.2.67-1.64,1.29-1.29,1.79-2.09,3.41-3.15,5.35-1.31,2.41-3.17,4.41-4.46,6.47-.43.69-3.6,6.34-3.3,6.61.93-.03,1.93.2,2.82-.21.22-.1,3.35-2.91,3.65-3.23Z"/>
      <path class="cls-1" d="M72.17,29.81v4.43c-4.86-4.93-8.62-5.72-14.89-8.99-.77-.4-3.29-.33-1.6-1.42,2.05-1.33,4.85.01,7.05.83,3.85,1.44,6.49,3.05,9.44,5.15Z"/>
      <path class="cls-1" d="M59.21,75.59c.05-.24.64-.26.87-.85,1.55-3.97,1.35-7.81,1.95-11.95l-1.6-.43c.61,2.37-.79,3.96-1.11,5.97-.39,2.44-.97,9.57-2.53,11.43-.05.07-.66-.18-.79.26-.24.83-.3,3.98,1.19,3.79-.06-1.07.36-1.76,0-2.83.68-.26.95-.77,1.3-1.34,1.49-2.46.37-2.14.72-4.03Z"/>
      <path class="cls-1" d="M60.83,61.55c.59.69,1.6-1.82,1.71-2.14.65-1.97.7-5.6.74-7.76.02-.91.13-5.06-.08-5.41-.09-.14-1.38-.61-1.55-.47.85,2.76-.93,6.02-1.22,8.69-.1.97.03,6.65.41,7.08Z"/>
      <path class="cls-1" d="M55.16,37.28c-2-.93-2.56.59-3.84,1.61-1.05.84-2.65.56-2.22,2.83,1.58,0,2.37-1.62,3.44-2.42.39-.3,3.33-1.26,2.63-2.02Z"/>
      <path class="cls-1" d="M53.82,79.23c1.42-1.67-.55-1.6-.68-2.3-3.44,1.51-2.04,5.49.68,2.3Z"/>
      <path class="cls-1" d="M55.28,74c.14-.64,1.43-1.63-.32-2.33-.85-.34-1.12,2.33-1.71,2.73-.17.66-.23,1.87-.11,2.52.22-.1.75.05,1.2-.2,1.05-.58.71-1.72.93-2.72Z"/>
      <path class="cls-1" d="M56.78,85.02l-.34,3.09-1.28,2.98s-.25.08-.32.21h-1.26c.31-.34.69-.57,1.18-.62-.08-1.56-.08-5.52,2.02-5.66Z"/>
      <path class="cls-1" d="M53.55,85.62c.34-.52.44-.88-.21-1.01-1.24-.26-1.99,1.4-2.66,2.19-.69.8-2.02.79-1.58,2.67,1.26-1.22,3.51-2.41,4.45-3.84Z"/>
      <path class="cls-1" d="M41.82,29.99c.79.27,5.04-1.44,4.04-2.42-.18-.17-3.82,1.87-4.04,2.42Z"/>
      <path class="cls-1" d="M49.3,42.94c.26-.13.26-.27,0-.4v.4Z"/>
    </g>
  </g>
</svg>