<?xml version="1.0" encoding="UTF-8"?>
<svg id="Calque_2" data-name="Calque 2" xmlns="http://www.w3.org/2000/svg" viewBox="0 0 15.87 8.79">
  <defs>
    <style>
      .cls-1 {
        fill: #036799;
      }
    </style>
  </defs>
  <g id="Calque_1-2" data-name="Calque 1">
    <g>
      <rect class="cls-1" x=".8" y="4.76" width="4.79" height=".8"/>
      <rect class="cls-1" y="2.96" width="4" height=".8"/>
      <path class="cls-1" d="M15.84,4.24l-1.2-2.8c-.06-.15-.21-.24-.37-.24h-1.2V.4c0-.22-.18-.4-.4-.4h-6.39v.8h5.99v5.02c-.37.21-.63.57-.74.98h-2.51c-.22-.85-1.09-1.37-1.95-1.15-.85.22-1.37,1.09-1.15,1.95.22.85,1.09,1.37,1.95,1.15.56-.15,1-.58,1.15-1.15h2.51c.22.85,1.08,1.37,1.93,1.15.57-.14,1.01-.59,1.15-1.15h.86c.22,0,.4-.18.4-.4v-2.8c0-.05-.01-.11-.03-.16M7.48,7.99c-.44,0-.8-.36-.8-.8s.36-.8.8-.8.8.36.8.8-.36.8-.8.8M13.07,2h.93l.86,2h-1.79v-2ZM13.07,7.99c-.44,0-.8-.36-.8-.8s.36-.8.8-.8.8.36.8.8-.36.8-.8.8M15.07,6.79h-.46c-.18-.7-.81-1.2-1.54-1.2v-.8h2v2Z"/>
      <rect class="cls-1" x=".8" y="1.17" width="4.79" height=".8"/>
    </g>
  </g>
</svg>