<?xml version="1.0" encoding="UTF-8"?>
<svg id="Layer_2" data-name="Layer 2" xmlns="http://www.w3.org/2000/svg" viewBox="0 0 14.09 7.8">
  <defs>
    <style>
      .cls-1 {
        fill: #fff;
      }
    </style>
  </defs>
  <g id="Calque_1" data-name="Calque 1">
    <g>
      <rect class="cls-1" x=".71" y="4.23" width="4.26" height=".71"/>
      <rect class="cls-1" y="2.63" width="3.55" height=".71"/>
      <path class="cls-1" d="M14.06,3.76l-1.06-2.48c-.06-.13-.18-.21-.33-.21h-1.06V.35c0-.2-.16-.35-.35-.35h-5.68v.71h5.32v4.45c-.33.19-.56.5-.66.87h-2.23c-.2-.76-.97-1.22-1.73-1.02-.76.2-1.22.97-1.02,1.73.2.76.97,1.22,1.73,1.02.5-.13.89-.52,1.02-1.02h2.23c.19.76.96,1.21,1.72,1.02.5-.13.89-.52,1.02-1.02h.76c.2,0,.35-.16.35-.35v-2.48s0-.1-.03-.14M6.64,7.09c-.39,0-.71-.32-.71-.71s.32-.71.71-.71.71.32.71.71-.32.71-.71.71M11.61,1.77h.83l.76,1.77h-1.59v-1.77ZM11.61,7.09c-.39,0-.71-.32-.71-.71s.32-.71.71-.71.71.32.71.71-.32.71-.71.71M13.38,6.03h-.41c-.16-.62-.72-1.06-1.37-1.06v-.71h1.77v1.77Z"/>
      <rect class="cls-1" x=".71" y="1.04" width="4.26" height=".71"/>
    </g>
  </g>
</svg>