<?xml version="1.0" encoding="UTF-8"?>
<svg id="Calque_2" data-name="Calque 2" xmlns="http://www.w3.org/2000/svg" viewBox="0 0 167.11 22">
  <defs>
    <style>
      .cls-1 {
        fill: #1d1d1b;
      }
    </style>
  </defs>
  <g id="Calque_1-2" data-name="Calque 1">
    <g>
      <path class="cls-1" d="M121.26,0c-3.9,4.87-7.82,9.42-9.98,12.06-2.42,2.96-4.3,6.2-6.2,9.35h-3.49c5.11-6.1,9.66-12.31,11.58-16.57.76-1.7.85-3.15,1.59-4.84h6.5Z"/>
      <path class="cls-1" d="M88.27,0c-2.44,3.74-4.9,7.45-7.44,11.1-1.85,2.65-4.62,6.36-7.86,10.31h-6.13c5.47-6.69,10.36-14.02,15.11-21.41h6.32Z"/>
      <path class="cls-1" d="M25.99,16.88c-.03,1.45.57,3.07,1.49,4.53h-3.47c-1.24-2-2.14-4.04-2.29-5.57-.48-4.82.29-10.47,1.1-15.84h4.38c-.69,5.75-1.1,11.43-1.21,16.88Z"/>
      <path class="cls-1" d="M45.21,21.41h-3.8c.97-1.88,1.38-4.28,1.78-6.13,1.1-1.65,2.07,2.47,2.14,3.2.11,1.11.06,2.07-.12,2.93Z"/>
      <path class="cls-1" d="M17.09,21.41h-4.05c-2.52-6.03-3.19-13.23-2.31-18.76.14-.91.41-1.78.72-2.65h3.36c-.64.98-1.22,1.98-1.51,3.07-.99,3.69-.86,10.41.9,13.86.56,1.11,1.49,1.29,1.67,1.67.49,1.04.88,1.96,1.22,2.81Z"/>
      <path class="cls-1" d="M48,0c-.09.18-.17.36-.26.53-.87.11-1.38-.07-1.63-.53h1.89Z"/>
      <path class="cls-1" d="M70.75,0c-2.71,4.47-5.15,8.99-6.98,13.44-1.14,2.79-2.16,2.11-2.92,2.98-.97,1.1-2.06,3.13-3.21,4.99h-2.72c.1-.38.21-.73.37-1.01,2.2-3.92,6.74-8.52,9.16-12.28,1.49-2.34,2.77-5.27,4.12-8.12h2.18Z"/>
      <path class="cls-1" d="M3.52,12.31c-1.5.2-2.48-.71-3.52-1.55V2C0,1.16.52.44,1.26.14c-.07,1.59-.08,3.2.14,4.92.09.72.82,1.25.91,1.78.3,1.6-.51,3.64,1.21,5.47Z"/>
      <path class="cls-1" d="M137.72,0c-5.69,7.26-11.6,14.42-17.66,21.41h-5.76c6.49-6.8,12.79-14,18.83-21.41h4.59Z"/>
      <path class="cls-1" d="M165.94,15.54c-.51,2.01-1.71,3.95-2.94,5.87h-1.75c.57-.93,1.12-1.84,1.65-2.75l3.04-3.12Z"/>
      <path class="cls-1" d="M150.76,0c-1.67,2.44-3.38,4.86-5.09,7.32-3.12,4.5-6.42,9.31-9.83,14.09h-2.69c2.1-3.05,3.91-6.32,6-9.36l-1.08-.53c1.5-1.03,1.69-2.85,2.71-4.14,1.19-1.52,3.3-2.51,4.49-4.21.76-1.1,1.45-2.15,2.1-3.17h3.39Z"/>
      <path class="cls-1" d="M164.05,0c-2.46,4.27-4.75,8.78-7.53,12.82-1.93,2.83-3.97,5.73-6.04,8.59h-6.14c5.34-7.18,10.9-14.07,16.22-21.41h3.49Z"/>
      <path class="cls-1" d="M167.01,14.47c-.75-.39-1.43.34-1.07.53.75.39,1.43-.34,1.07-.53Z"/>
      <path class="cls-1" d="M103.25,0c-.06.7-.03,1.41-.31,2.11-.66,1.64-4.63,5.7-5.84,7.57-1.9,2.93-4.42,7.72-6.89,11.73h-6.45c.7-.85,1.31-1.65,1.76-2.38,2.78-4.5,5.34-9.22,8.36-13.65,1.45-2.12,3.1-3.72,4.73-5.38h4.64Z"/>
      <path class="cls-1" d="M54.45,12.32c-.26-.27-1.02-3.56-1.09-4.29-.55.28-1.28,1.05-1.07-.26.4-2.47,1.3-5.1,2.48-7.77h4.83c-2.01,4.27-4.07,8.93-4.39,10.16-.09.34.68,3.6-.76,2.16Z"/>
      <path class="cls-1" d="M7.32,21.41H3.24c-.45-2.21-.57-4.68,1.9-4.05l2.18,4.05Z"/>
      <path class="cls-1" d="M35.68,1.06c-.78-.91-2.13,2.42-2.26,2.83-.86,2.61-.93,7.42-.98,10.28-.02,1.2-.17,6.71.11,7.17.11.19,1.83.81,2.06.62-1.13-3.65,1.24-7.98,1.61-11.52.14-1.28-.04-8.81-.54-9.39Z"/>
    </g>
  </g>
</svg>