<?xml version="1.0" encoding="UTF-8"?>
<svg id="Layer_2" data-name="Layer 2" xmlns="http://www.w3.org/2000/svg" viewBox="0 0 9.54 9.54">
  <defs>
    <style>
      .cls-1 {
        fill: #fff;
      }
    </style>
  </defs>
  <g id="Calque_1" data-name="Calque 1">
    <path class="cls-1" d="M4.77,0C2.14,0,0,2.14,0,4.77s2.14,4.77,4.77,4.77,4.77-2.14,4.77-4.77S7.4,0,4.77,0ZM4.53,5.7l-.15.87H1.92l.11-.66,1.39-1.23c.26-.22.4-.4.43-.54.02-.08,0-.15-.04-.21-.05-.05-.11-.08-.2-.08-.2,0-.38.13-.54.38l-.72-.45c.16-.27.36-.47.6-.61.24-.13.5-.2.78-.2.33,0,.59.11.8.33.21.23.28.51.22.85-.04.21-.11.39-.21.54-.1.15-.26.32-.47.5l-.58.49h1.04ZM7.47,6.03h-.35l-.09.54h-.89l.09-.54h-1.54l.15-.82,1.39-2.16h1.02l-1.4,2.16h.53l.11-.63h.89l-.11.63h.35l-.15.82Z"/>
  </g>
</svg>