<?xml version="1.0" encoding="UTF-8"?>
<svg id="Calque_2" data-name="Calque 2" xmlns="http://www.w3.org/2000/svg" viewBox="0 0 33 8.06">
  <defs>
    <style>
      .cls-1 {
        fill: #fff;
      }
    </style>
  </defs>
  <g id="IMAGES">
    <g>
      <path class="cls-1" d="M0,1.25V.38h4.87v7.31h-.88v-.38H.88v.38h-.88V1.25ZM.88,6.42h3.11V1.25H.88v5.17Z"/>
      <path class="cls-1" d="M8.74,2.67c-.04-.42-.11-.81-.19-1.16h-3.04v-.88h2.8c-.03-.09-.06-.17-.08-.22l.83-.29c.05.13.1.31.16.51h3.06v.88h-2.84c.08.29.14.65.18,1.08.04.43.03.92-.03,1.46-.09.65-.22,1.19-.39,1.61-.17.42-.3.68-.37.8-.19.34-.39.64-.59.89-.2.24-.38.44-.55.6l-.66-.59s.03-.03.04-.04c.19-.2.39-.45.62-.75.22-.31.43-.67.63-1.1.19-.43.33-.94.41-1.53.05-.42.06-.85.01-1.27Z"/>
      <path class="cls-1" d="M18.12,2.68h1.34v.88h-1.34l-.02,2.92c0,.23-.05.45-.13.66-.14.34-.35.6-.64.76-.21.11-.43.17-.67.17-.14,0-.29-.02-.43-.06-.29-.08-.55-.22-.78-.41-.14-.11-.25-.25-.35-.41l.74-.47c.05.08.11.15.17.2.11.09.25.17.42.22.17.06.33.06.47-.02.11-.07.19-.17.25-.32.04-.1.06-.22.07-.34v-2.91s-2.01,0-2.01,0c-.09.37-.23.79-.42,1.27-.19.47-.45.98-.77,1.51-.23.36-.45.67-.69.95-.23.28-.45.52-.66.73l-.55-.68c.2-.19.42-.43.65-.72.23-.29.46-.63.69-1.01.22-.39.4-.76.53-1.11s.23-.66.3-.93h-1.36v-.88h1.59c.07-.35.11-.7.13-1.05h-1.61v-.88h1.59c-.02-.2-.05-.4-.08-.6l.87-.15c.04.24.08.49.1.75h3.41v.88h-.8v1.05ZM17.24,1.63h-1.72c-.01.35-.05.7-.11,1.05h1.82v-1.05Z"/>
      <path class="cls-1" d="M19.67,3.66l1.25-.85c-.15-.76-.42-1.49-.81-2.17l.76-.44c.38.66.66,1.35.83,2.08h.02L24.98.08l.49.72-3.01,2.04c.13.61.36,1.19.69,1.72.3.48.63.88.99,1.2.36.32.71.57,1.06.75.34.19.64.33.88.41l-.3.82c-.28-.1-.62-.25-1.01-.47-.39-.21-.79-.5-1.21-.88-.42-.37-.8-.83-1.15-1.39-.19-.31-.35-.63-.49-.96,0,.86-.13,1.63-.35,2.29-.22.66-.46,1.21-.73,1.64l-.75-.45c.16-.26.32-.58.47-.95.15-.37.28-.79.37-1.25.1-.46.13-.97.12-1.52l-.87.59-.49-.73Z"/>
      <path class="cls-1" d="M26.44,7.24V1.58c-.03-.5.17-.88.6-1.14.46-.23.9-.19,1.31.12l-.56.68c-.1-.08-.21-.08-.33-.03-.11.07-.16.16-.15.29v4.85h2.23c.01-.37.09-.86.23-1.49.18-.69.44-1.36.79-2,.35-.64.7-1.19,1.05-1.66s.62-.77.82-.94l.57.67c-.15.12-.38.39-.69.81s-.63.92-.95,1.5c-.32.59-.56,1.19-.71,1.81-.13.56-.2.98-.21,1.28h1.44v.88h-1.33c.02.07.04.13.07.2l.02.06-.83.28-.02-.06c-.05-.15-.1-.31-.14-.48h-3.17Z"/>
    </g>
  </g>
</svg>