<?xml version="1.0" encoding="UTF-8"?>
<svg id="Calque_1" data-name="Calque 1" xmlns="http://www.w3.org/2000/svg" viewBox="0 0 815.54 134.2">
  <defs>
    <style>
      .cls-1 {
        fill: #049be5;
      }

      .cls-2 {
        fill: #121214;
      }
    </style>
  </defs>
  <path class="cls-1" d="M220.8,16.13l-4.12,23.46h26.08l4.12-23.46h-26.08Z"/>
  <polygon class="cls-1" points="0 0 46.22 0 22.69 132.07 0 132.07 0 0"/>
  <path class="cls-1" d="M129.65,62.32l-11.57,68.86-63.96.89,8.87-49.28c23.97,1.12,52.4-.16,66.66-20.47Z"/>
  <path class="cls-1" d="M79.83,13.21c13.69-7.79,30.9,2.58,30.51,18.37-.29,11.78-9.12,17.77-19.02,21.78-4.36,1.76-19.15,3.71-23.32,1.14-3.11-1.92,4.52-3.61,8.26-14.82,4.08-12.24-10.43-18.5,3.57-26.46Z"/>
  <path class="cls-1" d="M174.84,60.19c5.08-11.58,16.71-17.33,29.15-17.3l-5.03,29.5c-13.04-2.43-27.71,5.32-29.71,19.78l.19-1.17-7.08,40.38h-26.07l15.22-86.75h26.08l-2.73,15.57Z"/>
  <path class="cls-1" d="M200.65,131.37l15.22-86.75h26.08l-15.22,86.75h-26.07Z"/>
  <path class="cls-1" d="M311.19,42.19c20.04-.01,31.43,15.56,27.29,35.93,0,0-9.39,53.25-9.39,53.25h-26.08l8.72-49.44c1.9-9.97-2.9-15.73-12.49-15.8-10.09.08-16.93,6.41-18.91,16.81,0,0-8.49,48.42-8.49,48.42h-26.07l15.22-86.75h26.08l-1.41,8.04c6.37-6.98,14.89-10.47,25.55-10.47Z"/>
  <path class="cls-2" d="M488.73,44.62l-1.57,9.19c-5.32-7.74-13.42-11.62-24.29-11.62-25.23-.68-44.59,20.35-48.76,43.72-8.33,39.42,29.14,61.63,60.37,39.55l-1.05,5.9h26.03l15.27-86.75h-26.02ZM443.1,103.44c-14.15-20.51,16.33-49.64,34.96-30.88,14.38,20.52-16.38,49.62-34.96,30.88Z"/>
  <path class="cls-2" d="M518.68,131.37l22.16-126.67h26.08s-22.16,126.67-22.16,126.67h-26.07Z"/>
  <path class="cls-2" d="M689.08,44.63c-3.59-1.48-7.98-2.34-13.32-2.43-10.65,0-19.56,3.93-26.73,11.79-7.09-16.54-35.26-14.41-45.31-1.67l1.36-7.7h-26.08l-15.22,86.75h26.07l8.89-50.65c2.19-9.72,7.54-14.59,16.06-14.59,8.62-.03,11.37,6.12,9.86,14.22l-8.83,51.02h26.08l8.84-50.13c2.19-10.07,7.56-15.1,16.09-15.1,8.63-.03,11.38,6.12,9.87,14.22l-4.88,28.2-4,22.82h26.13c.01-.2.03-.39.05-.59l3.22-18.36,5.27-29.21c.82-4.54,1.24-9.16,1.04-13.77-.49-11.31-4.21-20.61-14.46-24.82Z"/>
  <path class="cls-2" d="M789.52,44.62h26.03l-15.27,86.75h-26.03l1.04-5.9c-31.24,22.08-68.71-.14-60.38-39.56,4.16-23.38,23.53-44.4,48.75-43.72,10.87,0,18.97,3.88,24.29,11.62l1.56-9.2ZM743.88,103.44c18.57,18.73,49.34-10.36,34.96-30.89-18.63-18.76-49.1,10.38-34.96,30.89Z"/>
  <path class="cls-1" d="M394.78,44.62l4.97-28.49h-25.96l-5.09,28.49h-13.79l-.03.2-4.44,24.66-.02.12h13.87l-5.41,30.72c-.5,2.79-.78,5.4-.85,7.82-.22,8.21,2.07,14.28,6.85,18.22,3.05,2.49,7.22,4.17,12.5,5.02.48.08.98.14,1.48.21,5.18.67,11.38.6,18.59-.21l4.1-23.24.06-.35c-6.48.45-11.05.23-13.71-.7-2.66-.93-3.64-3.18-2.94-6.75l5.41-30.74h17.94l.02-.12,4.46-24.66.03-.2h-18.04Z"/>
</svg>