<?xml version="1.0" encoding="UTF-8"?>
<svg id="Layer_2" data-name="Layer 2" xmlns="http://www.w3.org/2000/svg" viewBox="0 0 24.31 4">
  <defs>
    <style>
      .cls-1 {
        fill: #2f97d3;
      }
    </style>
  </defs>
  <g id="Calque_1" data-name="Calque 1">
    <g>
      <path class="cls-1" d="M6.58.48l-.12.7h.78l.12-.7h-.78Z"/>
      <polygon class="cls-1" points="0 0 1.38 0 .68 3.94 0 3.94 0 0"/>
      <path class="cls-1" d="M3.86,1.86l-.34,2.05-1.91.03.26-1.47c.71.03,1.56,0,1.99-.61Z"/>
      <path class="cls-1" d="M2.38.39c.41-.23.92.08.91.55,0,.35-.27.53-.57.65-.13.05-.57.11-.69.03-.09-.06.13-.11.25-.44.12-.36-.31-.55.11-.79Z"/>
      <path class="cls-1" d="M5.21,1.79c.15-.35.5-.52.87-.52l-.15.88c-.39-.07-.83.16-.89.59v-.03s-.21,1.2-.21,1.2h-.78l.45-2.59h.78l-.08.46Z"/>
      <path class="cls-1" d="M5.98,3.92l.45-2.59h.78l-.45,2.59h-.78Z"/>
      <path class="cls-1" d="M9.28,1.26c.6,0,.94.46.81,1.07l-.28,1.59h-.78l.26-1.47c.06-.3-.09-.47-.37-.47-.3,0-.5.19-.56.5l-.25,1.44h-.78l.45-2.59h.78l-.04.24c.19-.21.44-.31.76-.31Z"/>
      <path class="cls-1" d="M14.57,1.33l-.05.27c-.16-.23-.4-.35-.72-.35-.75-.02-1.33.61-1.45,1.3-.25,1.17.87,1.84,1.8,1.18l-.03.18h.78l.46-2.59h-.78ZM13.21,3.08c-.42-.61.49-1.48,1.04-.92.43.61-.49,1.48-1.04.92Z"/>
      <path class="cls-1" d="M15.46,3.92l.66-3.78h.78s-.66,3.78-.66,3.78h-.78Z"/>
      <path class="cls-1" d="M20.54,1.33c-.11-.04-.24-.07-.4-.07-.32,0-.58.12-.8.35-.21-.49-1.05-.43-1.35-.05l.04-.23h-.78l-.45,2.59h.78l.26-1.51c.07-.29.22-.43.48-.43.26,0,.34.18.29.42l-.26,1.52h.78l.26-1.49c.07-.3.23-.45.48-.45.26,0,.34.18.29.42l-.15.84-.12.68h.78s0-.01,0-.02l.1-.55.16-.87c.02-.14.04-.27.03-.41-.01-.34-.13-.61-.43-.74Z"/>
      <path class="cls-1" d="M23.53,1.33h.78l-.46,2.59h-.78l.03-.18c-.93.66-2.05,0-1.8-1.18.12-.7.7-1.32,1.45-1.3.32,0,.57.12.72.35l.05-.27ZM22.17,3.08c.55.56,1.47-.31,1.04-.92-.56-.56-1.46.31-1.04.92Z"/>
      <path class="cls-1" d="M11.77,1.33l.15-.85h-.77l-.15.85h-.41s-.13.74-.13.74h0s.41,0,.41,0l-.16.92c-.02.08-.02.16-.03.23,0,.24.06.43.2.54.09.07.22.12.37.15.01,0,.03,0,.04,0,.15.02.34.02.55,0l.12-.69h0c-.19,0-.33,0-.41-.03-.08-.03-.11-.09-.09-.2l.16-.92h.54s.13-.74.13-.74h0s-.54,0-.54,0Z"/>
    </g>
  </g>
</svg>