<?xml version="1.0" encoding="UTF-8"?>
<svg id="Calque_2" data-name="Calque 2" xmlns="http://www.w3.org/2000/svg" viewBox="0 0 2.68 2.54">
  <g id="Calque_1-2" data-name="Calque 1">
    <g>
      <path d="M.27,2.54s-.06-.04-.06-.07v-1.27c.09.01.16-.02.23-.08.02-.02.02-.05.05-.04,0,0,.02.03.03.04.15.11.41.1.53-.06.14.17.45.17.58,0,.12.16.38.17.53.06.02-.01.03-.04.03-.04.03,0,.03.02.05.04.07.05.14.09.23.08v1.27s-.04.07-.06.07h-1.21v-1.02s-.03-.03-.04-.03c-.04-.02-.44-.02-.51,0-.04,0-.11.01-.11.07v1c-.08-.01-.2.02-.28,0ZM1.61,1.47c-.06.01-.07.03-.07.09-.01.11-.01.38,0,.48,0,.05.02.07.07.08.08.01.38.01.46,0,.03,0,.05-.02.06-.05.02-.06.01-.42,0-.5s-.02-.1-.11-.11c-.09,0-.34-.01-.42,0Z"/>
      <g>
        <path d="M1.49,0l.09.8c.02.15-.04.26-.19.27-.14.01-.24-.01-.28-.16,0-.3.07-.61.09-.91h.3Z"/>
        <path d="M1.07,0l-.09.87c-.02.18-.11.21-.28.19-.1,0-.15-.07-.15-.17L.78.02l.02-.02h.27Z"/>
        <path d="M1.61,0h.27l.02.02.24.88c0,.1-.06.16-.15.17-.1,0-.21.01-.26-.09-.05-.32-.08-.65-.11-.98Z"/>
        <path d="M2.23,0s.08.05.1.08l.35.8c.03.22-.32.27-.4.08L2.02,0c.06,0,.15-.01.2,0Z"/>
        <path d="M.66,0l-.26.96C.33,1.15-.03,1.09,0,.88L.35.08S.43,0,.45,0h.2Z"/>
      </g>
    </g>
  </g>
</svg>