<?xml version="1.0" encoding="UTF-8"?>
<svg id="Calque_2" data-name="Calque 2" xmlns="http://www.w3.org/2000/svg" viewBox="0 0 11 10">
  <defs>
    <style>
      .cls-1 {
        fill: #036799;
      }
    </style>
  </defs>
  <g id="Calque_1-2" data-name="Calque 1">
    <path class="cls-1" d="M9.01,3.34V0H0v6h4.04c-.02.17-.04.33-.04.5,0,1.94,1.57,3.5,3.5,3.5s3.5-1.56,3.5-3.5c0-1.4-.81-2.59-1.99-3.16ZM4.34,5h-2.34c0-.55-.45-1-1-1v-2c.55,0,1-.44,1-1h5c0,.55.45,1,1,1v1.04c-.16-.02-.32-.04-.5-.04-.55,0-1.08.14-1.55.36.03-.11.05-.23.05-.36,0-.83-.67-1.5-1.49-1.5s-1.51.67-1.51,1.5.68,1.5,1.51,1.5c.04,0,.09,0,.13-.01-.11.16-.21.33-.3.51ZM7.41,9.26s-2.09-1.3-2.09-3.91c0-.32,2.09-.97,2.09-.97,0,0,2.09.65,2.09.97,0,2.61-2.09,3.91-2.09,3.91Z"/>
  </g>
</svg>