<?xml version="1.0" encoding="UTF-8"?>
<svg id="Layer_2" data-name="Layer 2" xmlns="http://www.w3.org/2000/svg" viewBox="0 0 9.77 8.88">
  <defs>
    <style>
      .cls-1 {
        fill: #fff;
      }
    </style>
  </defs>
  <g id="Calque_1" data-name="Calque 1">
    <path class="cls-1" d="M8,2.97V0H0v5.33h3.59c-.02.15-.04.29-.04.44,0,1.72,1.39,3.11,3.11,3.11s3.11-1.38,3.11-3.11c0-1.24-.72-2.3-1.77-2.81ZM3.85,4.44H1.78c0-.49-.4-.89-.89-.89v-1.78c.49,0,.89-.39.89-.89h4.44c0,.49.4.89.89.89v.92c-.14-.02-.28-.04-.44-.04-.49,0-.96.12-1.38.32.03-.1.04-.2.04-.32,0-.74-.59-1.33-1.32-1.33s-1.34.59-1.34,1.33.6,1.33,1.34,1.33c.04,0,.08,0,.12,0-.1.14-.19.29-.27.45ZM6.58,8.22s-1.86-1.15-1.86-3.47c0-.28,1.86-.86,1.86-.86,0,0,1.86.58,1.86.86,0,2.32-1.86,3.47-1.86,3.47Z"/>
  </g>
</svg>