<?xml version="1.0" encoding="UTF-8"?>
<svg id="Calque_2" data-name="Calque 2" xmlns="http://www.w3.org/2000/svg" viewBox="0 0 23.21 3.82">
  <defs>
    <style>
      .cls-1 {
        fill: #049be5;
      }
    </style>
  </defs>
  <g id="Calque_1-2" data-name="Calque 1">
    <g>
      <path class="cls-1" d="M6.28.46l-.12.67h.74l.12-.67h-.74Z"/>
      <polygon class="cls-1" points="0 0 1.32 0 .65 3.76 0 3.76 0 0"/>
      <path class="cls-1" d="M3.69,1.77l-.33,1.96-1.82.03.25-1.4c.68.03,1.49,0,1.9-.58Z"/>
      <path class="cls-1" d="M2.27.38c.39-.22.88.07.87.52,0,.34-.26.51-.54.62-.12.05-.54.11-.66.03-.09-.05.13-.1.24-.42.12-.35-.3-.53.1-.75Z"/>
      <path class="cls-1" d="M4.98,1.71c.14-.33.48-.49.83-.49l-.14.84c-.37-.07-.79.15-.85.56v-.03s-.2,1.15-.2,1.15h-.74l.43-2.47h.74l-.08.44Z"/>
      <path class="cls-1" d="M5.71,3.74l.43-2.47h.74l-.43,2.47h-.74Z"/>
      <path class="cls-1" d="M8.86,1.2c.57,0,.89.44.78,1.02,0,0-.27,1.52-.27,1.52h-.74l.25-1.41c.05-.28-.08-.45-.36-.45-.29,0-.48.18-.54.48,0,0-.24,1.38-.24,1.38h-.74l.43-2.47h.74l-.04.23c.18-.2.42-.3.73-.3Z"/>
      <path d="M13.91,1.27l-.04.26c-.15-.22-.38-.33-.69-.33-.72-.02-1.27.58-1.39,1.24-.24,1.12.83,1.75,1.72,1.13l-.03.17h.74l.43-2.47h-.74ZM12.61,2.94c-.4-.58.46-1.41.99-.88.41.58-.47,1.41-.99.88Z"/>
      <path d="M14.76,3.74l.63-3.6h.74s-.63,3.6-.63,3.6h-.74Z"/>
      <path d="M19.61,1.27c-.1-.04-.23-.07-.38-.07-.3,0-.56.11-.76.34-.2-.47-1-.41-1.29-.05l.04-.22h-.74l-.43,2.47h.74l.25-1.44c.06-.28.21-.42.46-.42.25,0,.32.17.28.4l-.25,1.45h.74l.25-1.43c.06-.29.22-.43.46-.43.25,0,.32.17.28.4l-.14.8-.11.65h.74s0-.01,0-.02l.09-.52.15-.83c.02-.13.04-.26.03-.39-.01-.32-.12-.59-.41-.71Z"/>
      <path d="M22.47,1.27h.74l-.43,2.47h-.74l.03-.17c-.89.63-1.96,0-1.72-1.13.12-.67.67-1.26,1.39-1.24.31,0,.54.11.69.33l.04-.26ZM21.17,2.94c.53.53,1.4-.29.99-.88-.53-.53-1.4.3-.99.88Z"/>
      <path class="cls-1" d="M11.24,1.27l.14-.81h-.74l-.14.81h-.39s-.13.71-.13.71h0s.39,0,.39,0l-.15.87c-.01.08-.02.15-.02.22,0,.23.06.41.19.52.09.07.21.12.36.14.01,0,.03,0,.04,0,.15.02.32.02.53,0l.12-.66h0c-.18,0-.31,0-.39-.03-.08-.03-.1-.09-.08-.19l.15-.87h.51s.13-.71.13-.71h0s-.51,0-.51,0Z"/>
    </g>
  </g>
</svg>