<?xml version="1.0" encoding="UTF-8"?>
<svg id="Calque_2" data-name="Calque 2" xmlns="http://www.w3.org/2000/svg" viewBox="0 0 6.87 6.44">
  <defs>
    <style>
      .cls-1 {
        fill: #f6f6f6;
      }

      .cls-2 {
        fill: #fdd303;
      }

      .cls-3 {
        fill: #f9c603;
      }
    </style>
  </defs>
  <g id="Calque_1-2" data-name="Calque 1">
    <g>
      <path class="cls-2" d="M3.67,5.02c-.85-.08-1.43-.88-1.49-1.63,0-.04,0-.09,0-.13,0-.09,0-.19,0-.28.06-.03.1-.22.13-.29.14-.27.45-.52.76-.6.09-.02.34-.03.36-.11.03-.11-.04-.16-.14-.16-.21,0-.53.13-.7.24,0-.05.02-.07.04-.1.23-.27.65-.51,1.03-.55,1.09-.1,1.77,1.02,1.72,1.92-.04.82-.74,1.77-1.72,1.68Z"/>
      <path class="cls-3" d="M3.67,1.42c-.38.03-.8.27-1.03.55-.03.03-.05.05-.04.1-.25.15-.53.5-.58.77-.03.13.04.24.17.15,0,.09,0,.19,0,.28-.3-.18-.3.31,0,.13.06.75.64,1.55,1.49,1.63-.02.04-.09.02-.13.02-2.58.03-2.76-3.36-.27-3.65l.4.02Z"/>
      <path class="cls-2" d="M5.84,5.51c-.08.06-.16.06-.26.02-.03-.02-.43-.38-.46-.43-.09-.11-.08-.18.01-.28.05,0,.1,0,.14,0,.13.03.67.5.57.68Z"/>
      <path class="cls-2" d="M1.74,4.83c.09.1.1.17.01.28-.03.04-.43.41-.46.43-.1.05-.18.04-.26-.02-.02-.14.02-.21.11-.31.13-.15.38-.41.6-.37Z"/>
      <path class="cls-2" d="M1.03,3.24c0,.09-.06.16-.16.18-.1.02-.61.02-.71,0-.1-.02-.15-.09-.16-.18.05-.02.09-.09.14-.11.08-.03.68-.03.76,0,.05.02.08.08.13.1Z"/>
      <path class="cls-2" d="M6.87,3.24c0,.09-.06.16-.16.18-.1.02-.61.02-.71,0-.1-.02-.15-.09-.16-.18.05-.02.09-.09.14-.11.08-.03.68-.03.76,0,.05.02.08.08.13.1Z"/>
      <path class="cls-2" d="M3.46,6.43c-.02-.05-.1-.08-.12-.13-.03-.08-.03-.64,0-.71.02-.04.09-.07.11-.12.1,0,.17.06.2.15.02.1.02.57,0,.67-.02.09-.1.14-.2.15Z"/>
      <path class="cls-3" d="M1.74,4.83c-.21-.03-.47.23-.6.37-.09.1-.14.17-.11.31-.13-.08-.12-.21-.03-.32.04-.05.42-.4.46-.42.12-.06.2-.03.28.06Z"/>
      <path class="cls-3" d="M1.03,3.24c-.05-.02-.08-.08-.13-.1-.08-.04-.68-.04-.76,0-.05.02-.09.09-.14.11,0-.09.03-.2.14-.23.09-.03.56-.02.68-.01.15.01.23.09.22.24Z"/>
      <path class="cls-3" d="M6.87,3.24c-.05-.02-.08-.08-.13-.1-.08-.04-.68-.04-.76,0-.05.02-.09.09-.14.11,0-.09.03-.2.14-.23.09-.03.56-.02.68-.01.15.01.23.09.22.24Z"/>
      <path class="cls-3" d="M5.84,5.51c.1-.18-.44-.65-.57-.68-.05-.01-.1,0-.14,0,.08-.09.15-.12.28-.06.05.02.42.37.46.42.09.11.09.24-.03.32Z"/>
      <path class="cls-3" d="M3.46,5.47s-.09.08-.11.12c-.04.07-.04.63,0,.71.02.05.1.08.12.13-.1,0-.21-.03-.24-.13-.03-.08-.02-.53-.01-.63.01-.14.1-.21.25-.2Z"/>
      <path class="cls-1" d="M2.59,2.06c.17-.11.49-.23.7-.24.11,0,.18.05.14.16-.03.08-.27.09-.36.11-.31.08-.62.32-.76.6-.04.07-.08.26-.13.29-.14.08-.2-.02-.17-.15.06-.27.34-.62.58-.77Z"/>
      <path class="cls-1" d="M2.18,3.26s0,.09,0,.13c-.3.18-.3-.31,0-.13Z"/>
      <g>
        <path class="cls-2" d="M1.72,1.63c-.1.08-.18.09-.3.01-.05-.03-.44-.4-.45-.43-.05-.09-.04-.16.02-.24.06,0,.11,0,.17,0,.11.02.54.42.56.53.01.04,0,.09,0,.13Z"/>
        <path class="cls-2" d="M5.89.97c.06.08.07.15.02.24-.02.03-.41.4-.45.43-.12.08-.19.07-.3-.01-.03-.2.24-.44.4-.56.11-.09.18-.13.33-.11Z"/>
        <path class="cls-2" d="M3.46.97c-.02-.05-.1-.08-.12-.13-.03-.08-.03-.64,0-.71.02-.04.09-.07.11-.12.1,0,.17.06.2.15.02.1.02.57,0,.67-.02.09-.1.14-.2.15Z"/>
        <path class="cls-3" d="M5.89.97c-.15-.02-.22.02-.33.11-.16.12-.43.36-.4.56-.1-.08-.12-.15-.06-.26.02-.04.4-.4.45-.43.12-.08.26-.09.34.03Z"/>
        <path class="cls-3" d="M3.46,0s-.09.08-.11.12c-.04.07-.04.63,0,.71.02.05.1.08.12.13-.1,0-.21-.03-.24-.13-.03-.08-.02-.53-.01-.63.01-.14.1-.21.25-.2Z"/>
        <path class="cls-3" d="M1.72,1.63s0-.09,0-.13c-.03-.1-.45-.5-.56-.53-.05-.01-.11,0-.17,0,.09-.12.23-.11.34-.03.06.04.43.39.45.43.06.11.03.19-.06.26Z"/>
      </g>
    </g>
  </g>
</svg>