<?xml version="1.0" encoding="UTF-8"?>
<svg id="Calque_2" data-name="Calque 2" xmlns="http://www.w3.org/2000/svg" viewBox="0 0 16.96 14.43">
  <defs>
    <style>
      .cls-1 {
        fill: #fff;
      }
    </style>
  </defs>
  <g id="Calque_1-2" data-name="Calque 1">
    <g>
      <path class="cls-1" d="M9.86.52c.06.03.28.42.44.46.15.04.39.11.5.24.05.06.06.14.14.21.07.06.12.02.18.07.11.09.04.15.07.21,0,.01.17.21.19.22.08.07.22.13.32.16.02.1-.1.03-.14.1.03.13.08.16.21.15.73-.01,1.2-.18,1.82.36.04.04.1.13.14.17.03.02.08.02.09.03.01.02,0,.1.02.14.06.17.17.23.28.36.32.42.48.78.67,1.26.07.16.22.36.27.5.06.19.01.43.21.57l-.11.06-.04.45c.36.14.72.31,1.02.55,1.27,1.02,1.07,2.72-.34,3.49-.43.24-1.46.55-1.95.51-.32-.03-.63-.15-.9-.33-.03.04.17.37.21.44.19.46.28,1.01.03,1.46-.29.51-.86.68-1.38.39-.39-.21-.56-.68-.88-.97-.1-.02-.39.18-.5.24-.87.42-1.27.58-2.08-.07-.54-.43-1.01-1.07-1.35-1.68l-1.19-.45s-.05.07-.06.11c-.18.51-.39,1.76-.43,2.31-.01.15.05.12.06.14,0,.05-.05.17-.06.25-.02.23.03.57,0,.77,0,.04-.19.59-.21.64-.34.71-1.81.34-2.3-.05-.19-.15-.21-.21-.18-.46-.74-.04-1.5-.43-1.92-1.05s-.32-1.17.11-1.76c.35-.49.8-.65,1.4-.55.33.05.53.23.82.32.1-.4.21-.8.35-1.19.17-.47.42-1.19.8-1.52.05-.04.18-.09.18-.15-.08-.13-.2-.23-.28-.35-.06-.09-.25-.43-.33-.44s-.26.07-.36.08c-.32.03-.72-.01-1.04-.09-.08-.02-.28-.12-.33-.1-.28.5-.88,1.06-1.46.63-.77-.58-.48-2.35-.25-3.16.02-.07.12-.26.12-.3,0-.07-.14-.18-.16-.31-.01-.09-.02-.24,0-.32.02-.17.37-.81.51-.93.17-.15.39-.09.44-.13.04-.03.2-.3.28-.39.74-.83,1.79-.75,1.83.51,0,.19-.08.5-.06.64,0,.04.08.14.12.12.15-.39.31-.74.54-1.09C5.09.13,7.28-.44,9.34.34c.11.04.23.14.33.17.06.02.16,0,.19.02ZM2.91,13.85c.46.32,1.16.52,1.71.34.26-.09.34-.36.38-.61.01-.11,0-.22,0-.32.03-.24.17-.4.13-.69-.01-.08-.06-.16-.07-.23-.02-.13.05-.26.07-.39.13-.8.28-1.59.48-2.38.07,0,.1.07.17.1.25.11,1.18.35,1.32.5.04.04.07.18.12.24.33.52,1.29,1.7,1.92,1.78.36.04.67-.1.99-.25.28-.13.54-.29.82-.44,0,.21.2.22.28.3.09.09.19.38.32.53.58.68,1.5.46,1.59-.46.06-.61-.25-1.18-.55-1.69-.22-.38-.69-1.18-1.22-1.05-.1.02-.17.11-.25.16s-.17.04-.28.11-.18.23-.2.25c-.03.02-.12.02-.17.05-.27.13-.53.28-.82.39-.27-.4-.65-.74-.67-1.25.01-.08.59-.25.71-.3,1.06-.5,2.17-1.85,2.29-3.04.02-.17-.05-.32-.05-.46,0-.12.09-.18.11-.27.06-.22-.01-.57-.04-.8.42-.11.69-.06.97.29l-.32.26c-.19.05-.22.19-.31.29-.09.1-.36.13-.36.3,0,.23.45.38.63.45,0,.11-.07.17-.07.29-.02.34.15.66.47.77-.64.98-1.16,2.35-.32,3.38.42.52,1.08.75,1.73.58.85-.23,1.73-.5,2.17-1.33.47-.88.14-1.77-.6-2.36-.33-.26-.71-.42-1.08-.61,0-.16.1-.31.1-.48,0-.47-.56-1.58-.81-2.01s-.73-1.15-1.23-1.28c-.47-.12-.97-.05-1.44,0C10.39.31,7.47-.53,5.34.78c-1.36.83-2.15,2.43-2.07,4.03,0,.11.11.43-.01.46-.28.05-.58-.04-.82-.18l.33-1.15c.32-.1.54-.48.38-.8-.03-.07-.12-.1-.13-.17-.01-.08.08-.35.08-.47.04-.54-.12-1.13-.78-1.06-.31.04-.65.33-.85.56-.06.07-.2.35-.22.36-.05.04-.21-.06-.37.04-.18.12-.15.24-.22.38-.14.28-.43.49-.27.85.04.08.14.12.16.21-.1.21-.18.44-.23.67-.15.65-.29,1.64-.04,2.26.41,1.05,1.31.5,1.62-.27.14.04.25.11.4.15.48.15,1,.13,1.48-.03l.73,1c.02.08-.09.1-.15.15-.76.66-.85,1.86-1.18,2.74-.12.33-.23.14-.41.04-.62-.34-1.31-.43-1.8.17-.1.12-.3.5-.34.65-.27.95.87,1.79,1.7,1.94.1.02.38,0,.45.05.07.05-.1.36.04.46.04.03.09.02.1.03-.01-.07.02-.05.05-.07.32-.17.82-.17,1.16-.32.05.05-.11.1-.13.1-.35.12-.74.14-1.08.28ZM3.18,3.86l-.24.17c-.06.13-.34.92-.3.99.07.06.45.17.48.06.02-.41-.03-.82.06-1.22ZM12.21,4.63l.5-.37c-.13-.17-.3-.23-.51-.15l.02.53ZM12.37,5.63l-.27-.09c-.16,1.21-.97,2.31-1.99,2.94-.29.18-.6.31-.91.45-.05.07.01.26.05.33.03.06.39.58.42.6.04.03.07.01.11,0,.11-.03.58-.25.68-.31.07-.04.13-.15.2-.21.1-.09.62-.36.74-.39.2-.04.59.27.64.24.06-.25,0-.51.03-.76.05-.6.39-1.22.66-1.74,0-.03-.16-.15-.21-.21-.19-.25-.2-.55-.16-.85Z"/>
      <path class="cls-1" d="M6.14,2.94c-.07-.07.19-1.05.25-1.2.02-.06.04-.18.1-.2l.87-.05c.1.09.3.84.37.84.02-.03.07-.05.08-.08.07-.15-.26-.77-.23-.8l.78-.26c.1.02.6.53.69.64.05.06.26.32.27.36.02.05-.01.03-.03.04-.06.04-.46.19-.49.16l-.08-.24.17-.21c-.39-.27-.84.13-1.11.41-.38.41-.72.91-1.16,1.27-.26.21-.23.11-.32-.16-.16.1-.07.41.03.53.05.06.12.07.15.11.09.1.16.23.27.32l-.04-.22c.29.19.51.41.87.44.06,0,.08.02.07-.05l-.33-.17c.28.02.55.04.83,0l.06.44c-.27.04-.54.07-.81.11-.04,0-.08-.03-.07.04.24.26.63.02.94.04.03.17.03.38.07.55.05.19.34.93.31,1.06,0,.02-.05,0-.06.06,0,.06-.02.24.05.26.08.03.69-.14.82-.17.28-.08.57-.16.84-.27.17-.67.11-1.39,0-2.06l-.63.19.57-.36-.13-.55c-.14.04-.25.18-.27.32-.06.39.1.33-.34.48-.34.11-.71.19-1.06.26l-.18-.63c.19-.06.36-.16.44-.35-.02-.04-.07,0-.1.01-.02.01-.32.23-.26.1.03-.06.18-.21.23-.29.22-.36.26-.71.24-1.13l.63-.15.61,1.21s.08.03.11.06c.09.11.15.47.25.6.08.05.57-.3.68-.31.09-.01.13.07.05.13-.18.13-.5.22-.7.32.12.68.09,1.37.06,2.05.38-.13.75-.31,1.09-.52,0,.15-.23.26-.35.34-.26.15-.53.26-.8.38-.13.49-.33.95-.65,1.34,0,.07.01.03.05.02.09-.02.17-.06.25-.08.03,0,.09-.04.08.02-.14.11-.33.12-.47.18-.08.04-.18.17-.25.19-.06.02-.17,0-.25.02-.14.03-.4.15-.51.14-.04,0-.28-.16-.28-.2l.11-.88-.03-.23c-.63.05-1.26.14-1.9.11-.02.02.17.34.19.41.01.04.03.1-.04.09-.16-.03-.2-.47-.28-.49-.21-.07-.36.11-.53.18-.09.04-.41.13-.49.12-.12-.02-.25-.31-.32-.4.17-.03.34.06.51.07.35.03.56-.09.89-.1.37,0,.75.02,1.13-.01.1,0,.78-.1.81-.14l-.04-.41c-.27-.25-.5-.03-.76.07-.38.15-.77.31-1.17.4-.1-.02-.27-.93-.27-1.07.75-.04,1.51.11,2.18.44.03-.04-.18-.34-.23-.4-.51-.69-1.27-1.23-2.15-1.26l.05-1.66c.19-.03.4-.01.59-.03.08-.01.3-.06.3-.16h-.83ZM10.25,6.75l-1.62.41-.07,1.22c.06.06.75-.13.85-.18.37-.19.75-1.05.83-1.45Z"/>
      <path class="cls-1" d="M5.45,1.32c.02.07-.04.05-.07.08-.22.27-.52.62-.68.92-.07.12-.06.23.09.27.09-.23.25-.45.39-.64.08-.1.34-.46.44-.5.05-.02.6.07.62.1l-.32,1.4-.97-.1s0,.07.02.1c.08.15.89.14.93.23-.04.35-.06.71-.04,1.07,0,.06.03.11.03.16,0,.1-.05.37.06.37v.03c-.71.15-1.02.82-1.05,1.49.35-.14.72-.27,1.11-.26l.25,1.09c-.15,0-.31.01-.45,0-.14-.01-.63-.07-.74-.12-.1-.04-.19-.27-.24-.37-.2-.47-.34-1.01-.37-1.53.16.02.4.09.56.06.01,0,.12-.15.1-.17l-.68-.11.02-.66c.11.01.15.13.19.21l.11-.02-.08.11.33-.08-.14.12c-.01.06.03.05.07.04.13-.02.28-.2.39-.28.04-.03.1-.03.14-.05.09-.06.18-.22.2-.32,0-.06.01-.35-.04-.37-.07-.02-.09.21-.1.25-.03.03-.11-.07-.14-.1-.33-.35-.52-.82-.77-1.21-.05-.07-.31-.51-.42-.36-.08.62-.29,1.23.11,1.8l-.11.09c.13.24,0,.51.03.77-.02.03-.63-.28-.68-.33-.02-.02-.04-.04-.04-.07.03-.39.07-.74.18-1.12.12-.42.35-.8.48-1.22.22-.07.34-.29.5-.45s.32-.29.47-.44l.3.13Z"/>
      <path class="cls-1" d="M4.73,6.86s-.57-.19-.63-.24c-.09-.06-.36-.72-.4-.87-.11-.33-.16-.7-.18-1.05l.74.35c.05.33.07.66.15.98.07.29.21.55.32.83Z"/>
      <path class="cls-1" d="M10.29,1.75c.07-.05.2-.22.29-.11-.09.09-.22.23-.34.27-.09.03-.12-.01-.19,0-.09.01-.47.25-.53.24-.23-.26-.42-.54-.68-.78-.08-.07-.2-.15-.27-.22-.02-.02-.04-.02-.03-.07.22-.02.5-.38.69-.32.04.01.36.25.38.28.05.08.01.18.06.27.02.03.19.27.22.31.04.05.21.23.26.23.05-.02.1-.05.14-.09Z"/>
      <path class="cls-1" d="M12.67,12.43c-.08.07-.22.13-.32.15.67-.62.23-1.6-.16-2.25-.21-.36-.47-.76-.87-.92-.03-.04.14-.1.17-.11.06,0,.29.16.35.22.31.27.84,1.23.97,1.63.12.37.19,1-.13,1.29Z"/>
      <path class="cls-1" d="M10.19,2.03c.02.25.35.44.33.7,0,.14-.18.13-.2.25-.02.14.11.26.08.41,0,.04-.22.12-.25.03l-.53-1.1.55-.29Z"/>
      <path class="cls-1" d="M9.56,4.77l-.18.47c-.16.33-.55.41-.84.58l-.07-.77,1.09-.27Z"/>
      <path class="cls-1" d="M11.33,10.34c-.14-.1-.23-.28-.41-.3l.05.14-.19-.08.08.17-.17-.08.05.17-.19-.08.08.14-.22-.08s.11.17.01.16c-.02,0-.09-.13-.15-.11l.03.14c-.07-.07-.11-.07-.19-.08l.05.17-.15-.11v.14c-.17,0-.17-.21-.26-.32l.79-.42c.3-.12.75.12.78.46Z"/>
      <path class="cls-1" d="M7.41.52s0-.05.04-.06c.18-.02.58-.02.77,0,.1,0,.49.08.57.12.03.01.05.02.05.06,0,.1-.39.28-.48.32-.31-.17-.59-.41-.95-.44Z"/>
      <path class="cls-1" d="M8.01,3c.14.53-.51,1.2-1.02.84.43-.17.71-.52,1.02-.84Z"/>
      <path class="cls-1" d="M8.18,1.07l-.69.22c0-.11-.34-.65-.3-.69.11-.04,1.04.41.99.47Z"/>
      <path class="cls-1" d="M7.27,1.32c-.19,0-.41.06-.59.06-.04,0-.12,0-.12-.04s.39-.7.43-.7c.06.08.33.65.29.69Z"/>
      <path class="cls-1" d="M5.83,1.26c-.04-.05.19-.19.23-.23.21-.16.44-.29.68-.38l-.39.68-.52-.07Z"/>
      <path class="cls-1" d="M5.12,7.58h-.32c-.12-.18-.29-.31-.42-.48-.03-.04-.14-.17-.11-.21l.61.24.25.45Z"/>
      <path class="cls-1" d="M12.23,12.41c-.23.1-.48-.07-.57-.28,0-.04.41-.3.49-.25.16.13.09.36.08.54Z"/>
      <path class="cls-1" d="M7.08,5.57l-.91-.08v-.3c.06-.06.59.12.68.16s.21.12.23.23Z"/>
      <path class="cls-1" d="M5.23,3.96c-.5.16-.84-.41-.77-.86l.4.55.37.3Z"/>
      <path class="cls-1" d="M6.47.57l-.85.6-.23-.12s.1-.1.13-.12c.26-.17.64-.29.95-.36Z"/>
      <path class="cls-1" d="M6,5.51l-.5.08c-.06-.13.28-.42.37-.41.06.03.15.3.12.32Z"/>
      <path class="cls-1" d="M11.55,9.76c-.08,0-.15-.04-.23-.03-.08.01-.1.12-.19.11l-.28-.13-.02-.06c.25-.2.52-.11.72.11Z"/>
      <path class="cls-1" d="M11.99,11.28c-.11.24-.35.41-.61.47,0-.06,0-.07.04-.11.04-.05.38-.28.45-.32.04-.02.06-.05.11-.04Z"/>
      <path class="cls-1" d="M11.71,11.17s-.34.39-.41.41c-.04.01-.08,0-.12,0l.03-.1.5-.32Z"/>
      <path class="cls-1" d="M12.07,11.58s-.3.27-.33.29c-.05.03-.21.12-.24.03-.02-.05.04-.05.07-.07.06-.04.48-.27.51-.25Z"/>
      <g>
        <path class="cls-1" d="M8.51,8.91s-.24-.19-.3-.12l.17.18c-.15-.07-.26-.17-.44-.14l.22.1.08.08c-.11,0-.24-.08-.36-.11-.13-.03-.28-.06-.41-.07l.53.2v.05s-1.08-.3-1.08-.3c0,.04.08.06.11.07.21.08.43.14.65.2.07.02.07.03,0,.03l-1.44-.38-.09.02.65.19.25.11c-.59-.17-1.18-.38-1.81-.33l.17.44c-.05-.02-.24-.36-.3-.3l.11.28-.18-.14c-.08-.02.16.3.12.33-.1-.03-.13-.23-.25-.21l.19.4-.28-.28.22.44-.3-.28.25.47-.33-.28.25.44-.3-.25.28.47c-.06-.03-.3-.33-.36-.28l.3.47c-.13-.08-.21-.26-.39-.28l.28.39-.23-.19-.04.04.25.26c-.11-.03-.21-.17-.33-.15.04.05.37.35.33.4-.12-.09-.23-.21-.39-.22.06.12.25.2.3.32,0,.01,0,.05-.01.04l-.32-.18c.1.17.31.27.33.48l-.21-.19v.05c-.22-.02-.39-.17-.57-.25-.07-.03-.45-.15-.46-.18.13-.41.22-.84.35-1.25.15-.48.45-1.42.94-1.63s1.78.05,2.33.17,1.28.27,1.54.85Z"/>
        <path class="cls-1" d="M4.7,13.79s-.13-.08-.13-.09c-.01-.02.03-.09-.04-.2-.02-.04-.26-.29-.29-.29-.06-.02-.05.13-.12.13l-1.19.31c0-.06,0-.12.06-.15.27-.15.78-.16,1.08-.29.18-.22-.11-.3-.26-.43-.39-.34-.74-.72-1.2-.98-.51-.3-1.25-.57-1.81-.3.09-.23.11-.33.37-.36,1.26-.13,2,.81,2.84,1.52.17.14.6.39.7.54.15.21.02.37-.03.59Z"/>
        <path class="cls-1" d="M3.02,11.28c-.2-.2-.28-.48-.61-.23l.08.12c-.27-.06-.54-.18-.82-.22-.19-.02-.38,0-.56-.02.43-.77,1.69-.42,1.9.34Z"/>
        <path class="cls-1" d="M7.21,9.95c.48.13,1.03.17,1.37-.25.09-.11.13-.26.23-.36-.13.73-.81.93-1.46.7-.05-.02-.12-.03-.14-.09Z"/>
        <path class="cls-1" d="M4.73,11.97c-.04-.06-.75-.61-.69-.66.29.1.59.36.69.66Z"/>
        <path class="cls-1" d="M3.07,10.89s.06,0,.1.03c.07.06.18.5.08.52-.1-.01-.06-.14-.08-.22-.03-.12-.1-.21-.1-.33Z"/>
        <path class="cls-1" d="M2.38,12.05c.01.07-.01.05-.06.07-.22.09-.69.23-.92.27-.04,0-.06.04-.1-.02l1.08-.32Z"/>
        <path class="cls-1" d="M3.87,11.64c-.06.01-.06-.03-.08-.07-.03-.06-.14-.45-.11-.48.06-.01.06.03.09.06.09.14.12.33.1.49Z"/>
        <path class="cls-1" d="M3.46,10.98c.08.17.13.35.11.55-.05,0-.06-.01-.08-.05-.02-.04-.14-.49-.12-.5h.08Z"/>
        <path class="cls-1" d="M2.85,12.38s-.05.04-.08.05c-.37.13-.78.24-1.16.31l1.1-.35h.14Z"/>
        <polygon class="cls-1" points="3.05 12.55 2.58 12.73 1.86 12.88 3.05 12.55"/>
        <path class="cls-1" d="M3.21,12.71c-.03.07-.13.08-.19.1-.29.1-.61.17-.91.23l.06-.06,1.04-.27Z"/>
        <path class="cls-1" d="M3.3,12.91s-.11.07-.15.08c-.2.06-.44.1-.65.14l.8-.22Z"/>
      </g>
      <path class="cls-1" d="M8.15,4.32c-.07-.04-.29.09-.28-.03l.21-.06.07.08Z"/>
      <g>
        <path class="cls-1" d="M14.24,10.04s-.05.04-.04.05l.08.08c-.12.03-.33-.11-.41,0l.8.11-.3.08.03-.08c-.35-.03-.67-.07-.99-.22.11.15.33.22.5.28,0,.04-.04.03-.07.03-.23-.04-.46-.21-.65-.33-.04.05.22.22.26.25.02.02.09.05,0,.05-1.11-.58-1.16-1.73-.72-2.79.05-.11.29-.61.36-.67.02-.01.03-.03.06-.03l.04.04c-.08.23-.16.48-.16.73l.29-.63s.04.07.04.12c0,.17-.08.43-.11.61,0,.05,0,.04.05.04l.17-.58c.12.06.02.21.03.32,0,.04.02.08.06.04-.01-.08.1-.54.15-.55l.18.17v-.17c.1-.13.37.27.47.28.04-.06-.22-.32-.05-.27.08.02.44.32.46.3.04-.1-.36-.38-.3-.44l.63.28-.36-.34c.09-.04.47.21.5.18.03-.09-.42-.33-.36-.39.16,0,.36.09.51.17.19.1.72.45.8.64.02.05-.01.1,0,.13.03.04.16.12.18.21,0,.08-.03.02-.05,0-.09-.11-.18-.23-.34-.26-.02.01.24.22.18.28l-.18-.14s.25.35.21.41l-.18-.19c.07.2.2.39.24.6,0,.03.03.17-.02.17,0-.18-.08-.36-.18-.5-.04.09.07.25.07.32v.48l-.07-.42-.07-.11c0,.08.05.18.04.26,0,.04-.04.07-.04.11,0,.18.01.36-.03.54l-.07-.25c-.1.24-.14.52-.36.69,0-.09.08-.16.11-.25,0-.03.03-.09,0-.11-.13.22-.27.38-.5.49-.08.04-.39.17-.47.17-.1,0-.34-.02-.41,0ZM14.94,7.56c-.24-.09-.48-.11-.72-.06l-.12-.16-.26.08.05.2c-.27.21-.47.45-.33.81.15.39.52.34.86.32l.17.35c-.06.21-.53-.08-.57-.05,0,.09-.2.32-.16.39.27.18.59.15.89.1l.16.2.2-.09c.03-.1-.03-.18-.08-.26.56-.26.63-1.19-.13-1.17-.13,0-.26.06-.39.02-.4-.68.23-.23.33-.3l.11-.38Z"/>
        <path class="cls-1" d="M14.61,5.21s-.06-.06-.05.01.1.43.08.46h-.06s-.08.52-.08.52l-.04-.08c-.05.05-.08.13-.12.18-.09.1-.55.31-.69.33-.29.05-.5-.05-.55-.35.23,0,.57-.07.63-.33-.21.04-.68.24-.83-.01-.13-.21.11-.17.23-.21.33-.1.57-.31.69-.64.05-.14.2-.72.18-.83-.04-.29-.6-.08-.8-.11-.04-.02-.31-.39-.35-.45-.04-.06-.05-.17-.07-.19-.03-.04-.3-.11-.37-.06v-.06c-.06-.03-.03.05-.06.06-.1.02-.26,0-.37.03l.33-.06-.23-.05c-.19,0-1.02.27-1.07.25-.18-.07-.11-.47-.02-.6.23-.36,1.25-.38,1.63-.35.87.09,1.2,1.01,1.55,1.68.06.12.47.78.43.86Z"/>
        <path class="cls-1" d="M13.04,4.71c-.13.15.32.67.25.74-.05.01-.07-.03-.1-.06-.06-.05-.49-.48-.51-.51,0-.02,0-.04,0-.06l.36-.11Z"/>
        <path class="cls-1" d="M13.07,5.54s-.83-.33-.83-.4l.26-.15s.07.12.11.16c.04.04.52.33.46.38Z"/>
        <path class="cls-1" d="M13.59,5.12s-.05,0-.05-.04c-.03-.21.02-.47-.03-.69l.21-.07.04.06-.16.74Z"/>
        <path class="cls-1" d="M13.26,4.43l.19.88c-.07.01-.05-.01-.07-.05-.1-.22-.15-.47-.21-.71l-.36.07c.01-.09.42-.21.44-.19Z"/>
        <path class="cls-1" d="M14,6.67l.35-.28c.12-.05.27-.19.33-.31.02-.04,0-.11.04-.11.02.34-.42.64-.72.69Z"/>
        <path class="cls-1" d="M15.74,9.82l.33-.41c.02.08-.29.45-.33.41Z"/>
        <path class="cls-1" d="M14.72,8.63c.3-.04.42.22.18.41-.02,0-.22-.37-.18-.41Z"/>
        <path class="cls-1" d="M14.2,8.33c-.14.02-.28-.06-.22-.21.11-.27.25.18.22.21Z"/>
      </g>
      <g>
        <path class="cls-1" d="M.37,5.55c.26-.23.57-.38.84-.59.09-.07.57-.5.59-.57s-.04-.04-.06-.04c-.62.07-.92.32-1.27.8-.02.03,0,.07-.07.05l.15-.63c.54-.3,1.1-.58,1.5-1.06-.4-.02-.83.15-1.13.41-.11.1-.18.23-.3.32l.2-.57c.54-.25,1.09-.53,1.51-.96-.17-.02-.38,0-.55.05s-.31.14-.47.21v-.25c.38-.09.73-.28.99-.57.01-.06-.03-.04-.07-.04-.24-.02-.55.05-.72.22-.02,0-.02-.03-.01-.04.04-.09.38-.42.47-.49.78-.6.83.37.67.92-.06.21-.26.52-.3.69-.02.08,0,.16-.02.23-.09.44-.26.8-.39,1.21-.15.5-.25,1.02-.46,1.5-.17.4-.56,1.18-.94.46-.04-.07-.13-.3-.11-.38s.71-.56.8-.69l.28-.4c-.35.02-.64.15-.88.4-.09.1-.15.22-.25.32v-.51ZM1.69,5.15s-.04-.08-.08-.08-.08.04-.08.08.04.08.08.08.08-.04.08-.08ZM1.39,5.73s-.03.2.06.19c.13-.02.07-.27-.06-.19ZM1.28,6.31c.07-.19-.22-.3-.15-.02l.15.02ZM1.25,6.53c-.1.05-.12,0-.19-.06-.02.09.08.12.11.19-.05-.03-.16.05-.18.08-.02.03.03.09.01.11,0,0-.07,0-.09.03-.03.02,0,.06-.02.08-.03.04-.13,0-.1.09.28.04.42-.29.47-.52Z"/>
        <path class="cls-1" d="M3.37,5.49l.14.55c-.14.03-.23.06-.37.05-.04,0-.06-.04-.08-.04-.03,0-.09.12-.12-.04l-.04.06c-.15-.07-.3-.04-.43-.18-.03-.03-.03-.08-.05-.1-.02-.03-.07-.04-.09-.06-.08-.11.03-.26.03-.38.34.12.65.16,1.02.14Z"/>
        <path class="cls-1" d="M2.76,3c.13-.04.25.33.22.45-.06.31-.33.08-.35-.14,0-.08.05-.29.12-.31Z"/>
        <path class="cls-1" d="M1,3.11c.09.15-.27.22-.32.28s0,.18-.09.16c-.08-.17,0-.48.21-.5.04,0,.19.04.2.06Z"/>
        <path class="cls-1" d="M1.11,2.85c-.07.05-.24.04-.27-.04-.01-.05.1-.26.15-.28.25-.08.24.21.11.32Z"/>
        <path class="cls-1" d="M1.39,4.66c-.09.09-.2.18-.31.26-.04.03-.39.29-.41.26.09-.28.45-.46.72-.52Z"/>
        <path class="cls-1" d="M1.69,3.74l-.74.49-.11.04c.17-.28.54-.46.86-.52Z"/>
        <path class="cls-1" d="M.54,6.17c-.03-.16.66-.64.69-.61.01.05-.03.07-.05.1-.07.08-.25.23-.33.3-.09.08-.19.16-.3.21Z"/>
        <path class="cls-1" d="M1.89,2.94l-.66.39c.09-.24.43-.35.66-.39Z"/>
        <path class="cls-1" d="M2.05,2.28c-.14.12-.34.22-.52.25.11-.16.34-.23.52-.25Z"/>
      </g>
    </g>
  </g>
</svg>