<?xml version="1.0" encoding="UTF-8"?>
<svg id="Calque_2" data-name="Calque 2" xmlns="http://www.w3.org/2000/svg" viewBox="0 0 20.51 4.38">
  <defs>
    <style>
      .cls-1 {
        fill: #fff;
      }
    </style>
  </defs>
  <g id="Calque_1-2" data-name="Calque 1">
    <g>
      <path class="cls-1" d="M1.3,3.67c.33.34.96.19,1.29-.09.18-.15.44-.66.65-.61.34.07-.23.8-.35.92-.68.64-2.18.74-2.67-.17C-.57,2.21.88-.21,2.65.01c.18.02.53.25.61.25.11,0,.49-.57.55-.02.02.16.03.97,0,1.09-.03.09-.12.12-.21.11-.26-.04-.22-.81-.67-1-.73-.31-1.36.44-1.61,1.04-.23.55-.46,1.72,0,2.18Z"/>
      <path class="cls-1" d="M10.41,2.01c.31-.44,1.75-.99,1.7-.07-.03.48-.54,1.35-.52,1.72.02.35.36-.22.49-.02.18.28-.47.68-.72.72-1.36.21-.23-1.53-.15-2.14-.12-.44-.64.06-.8.25-.19.24-.5.89-.52,1.19-.02.2.17.32,0,.52s-.85.31-.93,0c-.11-.46.55-1.52.6-2.03-.11-.28-.3.11-.46.06-.19-.06.08-.41.16-.49.39-.38,1.34-.5,1.16.29Z"/>
      <path class="cls-1" d="M8.83,2.28c.07.1.29.1.02.31l-1.78.59c-.08.7.69.83,1.13.45.1-.09.37-.62.54-.42.14.17-.14.62-.27.75-.33.33-.93.45-1.38.41-1.4-.13-1.02-1.95-.18-2.58.54-.41,1.55-.61,1.85.18.03.09.02.25.07.31ZM8,2.53c.1-.16.08-.81-.25-.76-.37.06-.64.72-.68,1.05.12-.02.9-.25.93-.29Z"/>
      <path class="cls-1" d="M13.1,3.15c-.02.79.78.89,1.24.36.1-.11.23-.47.44-.33.22.15-.19.71-.34.84-.51.43-1.77.56-2.11-.13-.44-.88.3-2.16,1.2-2.4.35-.09.88-.1,1.13.2.15.18.14.45.21.57.04.07.24.08.1.27-.12.17-1.59.53-1.87.63ZM14.07,2.53c.15-1.46-.92-.5-.93.29l.93-.29Z"/>
      <path class="cls-1" d="M17.69,2.57c-.22.11-1.79.53-1.85.62-.03.05.05.34.09.41.24.41.82.24,1.1-.04.1-.1.24-.38.37-.4.25-.03.12.38.05.53-.35.67-1.46.87-2.09.52-.74-.41-.36-1.72.12-2.23.4-.42,1.36-.8,1.85-.36.25.23.16.4.26.6.06.11.26.11.1.35ZM16.71,1.82c-.33-.31-.91.73-.84,1.01.03.03.87-.26.9-.3.08-.1.05-.6-.05-.71Z"/>
      <path class="cls-1" d="M6.11,2.28c.05.07.26.14.04.29-.37.24-1.28.35-1.72.56-.17.08-.13.13-.08.29.14.46.54.49.94.33.28-.11.43-.57.59-.58.28-.03.15.36.08.49-.38.81-2.09,1.07-2.44.18-.47-1.21.97-2.91,2.16-2.29.41.22.26.51.42.74ZM5.19,1.82c-.26-.21-.61.31-.7.52-.03.06-.17.46-.14.49.12-.02.9-.25.93-.29.08-.13.05-.6-.09-.71Z"/>
      <path class="cls-1" d="M19.12,1.97c.21-.22.47-.5.79-.53.49-.05.65.26.59.71-.03.25-.15.4-.4.45-.62.13-.31-.45-.39-.55-.12-.16-.42.15-.49.25-.17.23-.56,1.18-.51,1.44.03.14.26.24.08.45s-1.01.32-1.06-.04c-.06-.56.59-1.49.57-2.09-.22-.05-.29.2-.49.16-.12-.7,1.46-1.23,1.3-.24Z"/>
      <path class="cls-1" d="M11.58,1.1s-.35.09-.4.08c-.25-.04-.49-.38-.63-.38-.22,0-.24.47-.51.39-.05-.49.31-1.05.87-.89.19.06.36.47.62.28.11-.08.09-.34.28-.33.31.03-.11.75-.23.84Z"/>
    </g>
  </g>
</svg>