<?xml version="1.0" encoding="UTF-8"?>
<svg id="Calque_2" data-name="Calque 2" xmlns="http://www.w3.org/2000/svg" viewBox="0 0 14.55 14.55">
  <defs>
    <style>
      .cls-1 {
        fill: #fff;
      }
    </style>
  </defs>
  <g id="Calque_1-2" data-name="Calque 1">
    <g>
      <path class="cls-1" d="M11.02,5.81c-.2-.45-.47-.85-.81-1.19-.34-.34-.74-.61-1.2-.81-.46-.2-.94-.29-1.46-.29h-1.91s-.5,0-.5,0h-1.32c-.32,0-.59.27-.59.6l.02,6.32c0,.33.27.59.59.59h1.32s.5,0,.5,0h1.91c.52,0,1-.11,1.46-.31.45-.2.85-.47,1.19-.81.34-.34.61-.74.81-1.19.2-.46.29-.94.29-1.46,0-.52-.1-1-.3-1.46ZM5.16,9.34l-.51,1.03h-.73s-.02-6.18-.02-6.18h1.25s.5,0,.5,0c.05,0,.1,0,.16,0,.37.02.72.1,1.05.24.21.09.4.2.58.32l-.74,1.49h-.88s-.66,0-.66,0h-.59s0,.66,0,.66h.59s.66,0,.66,0h.55s-.55,1.11-.55,1.11l-.66,1.32ZM7.91,5.17c.25.26.44.56.59.9.02.05.05.11.07.17h-1.18s.52-1.07.52-1.07ZM6.86,10.12c-.33.14-.68.22-1.04.24-.05,0-.1,0-.16,0h-.25l.41-.84,1.27-2.62h1.64c.02.12.02.24.02.37,0,.43-.08.84-.24,1.21-.16.37-.38.7-.66.98-.28.28-.61.5-.98.66ZM10.42,8.47c-.16.37-.38.7-.66.98-.28.28-.61.5-.98.66-.31.13-.64.21-.98.23.19-.13.36-.27.52-.43.34-.34.61-.74.8-1.19.15-.35.25-.73.28-1.12,0-.11.01-.23.01-.34,0-.52-.1-1-.3-1.46-.2-.46-.47-.85-.81-1.19-.16-.16-.34-.31-.52-.43.34.02.67.1.98.23.38.16.7.38.99.66.28.28.51.61.67.98.16.37.25.78.25,1.2,0,.43-.08.84-.24,1.21Z"/>
      <path class="cls-1" d="M7.28,14.55C3.26,14.55,0,11.29,0,7.28S3.26,0,7.28,0s7.28,3.26,7.28,7.28-3.26,7.28-7.28,7.28ZM7.28.68C3.64.68.68,3.64.68,7.28s2.96,6.6,6.6,6.6,6.6-2.96,6.6-6.6S10.91.68,7.28.68Z"/>
    </g>
  </g>
</svg>