<?xml version="1.0" encoding="UTF-8"?>
<svg id="Calque_2" data-name="Calque 2" xmlns="http://www.w3.org/2000/svg" viewBox="0 0 7.24 5.36">
  <defs>
    <style>
      .cls-1 {
        fill: #e53e5a;
      }

      .cls-2 {
        fill: #de374b;
      }

      .cls-3 {
        fill: #b5304d;
      }

      .cls-4 {
        fill: #27aae1;
      }

      .cls-5 {
        fill: #a7a9ac;
      }

      .cls-6 {
        fill: #ce3650;
      }

      .cls-7 {
        fill: #e6e7e8;
      }

      .cls-8 {
        fill: #d1d3d4;
      }
    </style>
  </defs>
  <g id="Calque_1-2" data-name="Calque 1">
    <g>
      <path class="cls-2" d="M1.79,4.49c-.13-.2-.19-.43-.2-.67,0-.06-.04-.09-.09-.09-.02-.02-.04-.04-.07-.04-.13-.02-.26,0-.39,0-.02,0-.04,0-.06.01-.09-.02-.19.1-.12.19.25.32.25.67.32,1.05.04.22.21.45.46.42.26-.03.36-.22.33-.46-.01-.15-.13-.29-.2-.41"/>
      <path class="cls-3" d="M1.39,4.34c.07.28.13.65.48.68.04,0,.08,0,.11,0,0-.04,0-.08,0-.13-.01-.15-.13-.29-.2-.41-.13-.2-.19-.43-.2-.67,0-.06-.04-.09-.09-.09-.02-.02-.04-.04-.07-.04-.11-.02-.22,0-.33,0,.14.19.22.42.29.67"/>
      <path class="cls-8" d="M4.68,4.63c-1.41-.27-2.81-.54-4.22-.81-.13-.02-.15-.18-.04-.27C1.65,2.54,2.88,1.53,4.11.52c.11-.09.28-.06.3.06.18,1.28.35,2.56.53,3.84.02.12-.13.24-.26.21"/>
      <path class="cls-7" d="M4.72,4.64c-1.19-.23-2.38-.46-3.57-.69-.11-.02-.13-.15-.03-.23l3.13-2.56c.1-.08.24-.05.25.05.07.54.15,1.08.22,1.63.07.54.15,1.08.22,1.63.01.1-.11.2-.22.18"/>
      <path class="cls-8" d="M3.63,2.81c-.16-1.15.15-2.2.7-2.35.54-.15.87.66,1.02,1.8.16,1.15.08,2.2-.46,2.35-.54.15-1.11-.65-1.26-1.8"/>
      <path class="cls-5" d="M3.74,2.78c-.14-1.01.14-1.94.61-2.07s.74.58.88,1.59c.14,1.01.1,1.94-.37,2.07-.48.13-.98-.58-1.11-1.59"/>
      <path class="cls-7" d="M3.84,2.8c-.06-.44.06-.84.27-.9.21-.06.42.25.49.69.06.44-.06.84-.27.9-.21.06-.43-.25-.49-.69"/>
      <path class="cls-2" d="M1.52,2.62c-.39.32-.78.64-1.17.96-.11.09-.09.24.04.27l1.31.25c-.13-.48-.18-.97-.18-1.48"/>
      <path class="cls-6" d="M.88,3.21c-.14.12-.29.24-.43.35-.11.09-.09.24.04.27.16.03.33.06.49.09-.05-.24-.08-.48-.1-.72"/>
      <path class="cls-2" d="M0,3.78c-.06-.44.89-.78,1.1-.83.21-.06.07.18.13.62.06.44.05.36-.55.62-.2.09-.62.03-.68-.41"/>
      <path class="cls-1" d="M1.55,3.4c-.04-.28,0-.54.02-.82-.07-.04-.16-.04-.27-.01-.07.02-.14.06-.2.11-.09.5-.04,1.16.39,1.48.05.03.11.04.14.03.01,0,.03,0,.04,0h.07s.15-.02.11-.07c-.17-.23-.27-.42-.31-.71"/>
      <g>
        <path class="cls-4" d="M6.41,4.49v-.32s0-.03,0-.04c0-.02,0-.03,0-.05,0-.03.01-.05.02-.07,0,0,0,0,0-.01.42-.78.5-1.79.17-2.74-.17-.51-.31-.46-.33-1.02,0-.23.15-.31.24-.18.89,1.22.96,3.33.14,4.6-.09.14-.25.06-.25-.16"/>
        <path class="cls-4" d="M5.6,4.16c0-.09,0-.18,0-.26,0-.01,0-.02,0-.04,0-.01,0-.03,0-.04,0-.02.01-.04.02-.06,0,0,0,0,0-.01.35-.64.41-1.47.14-2.26-.14-.42-.26-.38-.27-.84,0-.19.12-.26.2-.15.74,1,.79,2.74.11,3.78-.07.11-.2.05-.21-.14"/>
      </g>
    </g>
  </g>
</svg>