<?xml version="1.0" encoding="UTF-8"?>
<svg id="Calque_2" data-name="Calque 2" xmlns="http://www.w3.org/2000/svg" viewBox="0 0 14.59 14.97">
  <defs>
    <style>
      .cls-1 {
        fill: #fff;
      }
    </style>
  </defs>
  <g id="Calque_1-2" data-name="Calque 1">
    <g>
      <path class="cls-1" d="M3.42,1.48s.03.01.04.02c.15.29.32.59.48.87.06.11.07.27.23.22.1-.03.34-.22.46-.27.17-.08.42-.17.6-.23.2-.07.49-.14.72-.17.58-.08,1.6-.15,2.18-.07.07,0,.1.06.16.07.09.02.21,0,.31,0,.28.03.63.17.91.24.04,0,.08.01.12.01l-.05.05c.11.02.27.07.37.12s.24.12.34.17c.05.03.12.12.17.12.12,0,.16-.23.21-.31.14-.24.43-.62.52-.87.02-.06,0-.11.02-.17.07-.25.24-.72.39-.92.07-.09.13-.08.22-.12s.42-.21.49-.22c.29-.04,1.17-.02,1.43.09.17.07.43.32.56.46.31.33.31.97.29,1.41,0,.09-.16.62-.22.69-.04.04-.3.24-.36.29-.47.35-1.02.52-1.53.76-.16.08-.37.16-.52.24-.03.01-.04.01-.04.05,0,.09.27.45.32.55.54.94.89,2.24,1.08,3.37.14.84.23,1.73.2,2.59-.02.71-.21,1.45-.62,2.06-.03.05-.09.1-.12.15-.07.13-.04.05-.11.12-.02.02-.01.06-.03.07-.25.28-.84.82-1.22.81,0,0,0,.03-.03.04-.02.01-.05.01-.06.02-.08.08-.18.25-.27.34-.46.44-1.34.7-1.97.74-.18.01-.43-.03-.59,0-.06.01-.1.06-.18.07-.55.06-1.36,0-1.93-.02-.17,0-.14-.02-.28-.04-.22-.04-.56-.01-.82-.05-.74-.1-1.34-.28-1.88-.85-.07-.07-.11-.19-.2-.23-.07-.03-.13-.02-.21-.04-.15-.04-.46-.29-.58-.38-.48-.37-.86-.89-1.08-1.46-.38-1-.3-2.47-.13-3.52.03-.2.1-.46.13-.65.16-1.13.52-2.28,1.11-3.29.04-.07.26-.36.25-.41,0-.02-.12-.08-.14-.09-.75-.34-1.68-.65-2.3-1.22-.08-.07-.12-.23-.12-.34l-.05.02c.03-.1-.04-.19-.04-.26C-.01,1.78-.02,1.04.12.76c.09-.19.22-.23.35-.36.05-.05.08-.12.12-.16.09-.09.36-.2.49-.21.22-.03,1.01-.03,1.21,0,.08.01.39.17.49.22.09.04.11,0,.19.1.09.13.27.53.32.69.04.12.06.33.11.45ZM2.42.85c-.08-.08-.4-.19-.51-.19-.23,0-.57.05-.79.15-.2.09-.32.21-.38.42-.07.24-.04.3,0,.52,0,.04-.03.08-.02.13.02.13.15.45.23.56.15.2.24.16.43.26.24.12.47.29.72.37l-.02.05s.06,0,.09.01c.25.12.5.26.74.38.08.04.22.07.29.12.13.09.2.33.14.49-.03.08-.13.15-.16.21-.85,1.32-1.19,2.81-1.35,4.35-.1.89-.17,1.84.07,2.7,0,.03.08.09.1.15.12.34.17.51.39.82.1.14.34.42.48.51.17.11.06-.17.06-.24-.02-.28,0-.56.04-.83.02-.11-.05-.18-.08-.28-.07-.23-.12-.42-.12-.63-.01-.64-.06-1.07.23-1.67.52-1.08,2.31-1.51,3.42-1.55.65-.02,1.71-.03,2.31.06.84.12,2.24.51,2.73,1.26.33.5.45,1.15.42,1.75,0,.18-.04.27-.09.42-.02.05,0,.12,0,.17-.07.3-.12.28-.11.62,0,.31.02.64-.04.94.03.12.26-.12.3-.16.73-.73.96-1.74.94-2.75-.03-1.25-.16-2.36-.51-3.55-.18-.61-.39-1.19-.72-1.73-.09-.15-.27-.35-.33-.49-.1-.2-.03-.44.16-.56.25-.16.66-.3.93-.44s.53-.32.82-.46c.11-.05.26-.08.36-.16.29-.25.38-1,.27-1.35-.02-.06-.11-.23-.16-.26-.02-.01-.06,0-.08-.02-.2-.12-.37-.21-.61-.24s-.61.01-.81.17c-.16.13-.1.14-.15.29-.17.44-.41.78-.65,1.18-.17.27-.34.61-.55.85-.06.07-.05.12-.18.14-.07.01-.4-.17-.49-.21-.66-.36-1.17-.59-1.94-.67-.69-.07-1.73-.07-2.38.07-.56.12-.97.36-1.46.62-.06.03-.35.18-.39.18-.16,0-.32-.26-.4-.38-.25-.37-.47-.78-.7-1.16-.04-.07-.16-.21-.19-.27-.05-.11-.08-.31-.12-.43,0-.02-.14-.2-.15-.21ZM10.51,8.69s-.31-.16-.36-.18c-.51-.24-1.2-.41-1.76-.44-.87-.05-1.93-.07-2.78.07-.59.09-1.53.41-1.96.84-.51.51-.55,1.73-.31,2.38.1.27.23.49.54.51.74.05,1.54-.31,2.26-.44.79-.15,1.81-.11,2.58.07.55.13,1.07.35,1.66.38.42.02.66-.03.81-.45.14-.38.23-.98.16-1.4-.1-.54-.24-.93-.71-1.24-.02-.01-.02-.05-.04-.06-.04,0-.1.03-.1.02,0,0,0-.04,0-.06ZM8.77,11.94c-.09-.01-.19-.03-.28-.05-.7-.18-1.71-.19-2.43-.03-.09.02-.36.08-.22.19.06.05.11,0,.17-.01.76-.12,1.49-.17,2.24-.05l.44.11c.06,0,.08-.11.08-.16ZM5.21,12.18c-.11-.08-.17-.06-.29-.03-.39.12-.83.19-1.24.15-.08,0-.16-.07-.24-.04-.03.02-.03.19-.02.23.03.11.03.14.05.27.04.29.23.67.43.88.7.74,2.33.71,3.29.72s2.08.07,2.96-.33c.71-.32.91-.83.99-1.55,0-.06.07-.1.02-.16-.07-.09-.1-.02-.15-.01-.42.06-.8,0-1.22-.09-.12-.03-.22-.09-.36-.07-.04,0-.19.2-.24.23-.13.09-.46.19-.61.16-.52-.09-1.05-.16-1.58-.14-.26.01-.71.05-.96.09-.05,0-.07.05-.14.05-.03,0-.31-.07-.35-.09-.15-.06-.23-.19-.34-.27Z"/>
      <path class="cls-1" d="M11.99,1.8c.2-.24.55-.41.87-.36.28.05.38.55.35.78,0,.04-.09.37-.1.38-.09.14-.44.31-.6.34-.13.03-.31.06-.43.08-.16.02-.53.01-.56-.2-.02-.12.16-.31.21-.42.1-.2.12-.43.26-.6Z"/>
      <path class="cls-1" d="M2.39,1.61c.3.21.23.23.35.54.05.12.12.28.18.39.05.09.16.16.12.31-.05.17-.27.11-.37.13-.02,0-.02.04-.03.05-.07.02-.05-.04-.07-.05-.07-.02-.19,0-.27,0-.11,0-.3-.05-.41-.07s-.4-.24-.44-.34c-.03-.06-.11-.38-.1-.45,0-.2.1-.63.34-.67.27-.05.49,0,.71.16Z"/>
      <path class="cls-1" d="M11.05,5.56c-.19.18-.46.23-.64.01-.16-.19-.09-.43.08-.58.18-.17.5-.19.66.02.15.19.05.4-.1.55Z"/>
      <path class="cls-1" d="M4.25,5.45c-.09.08-.17.24-.31.25-.05,0-.18-.02-.23-.03-.22-.07-.35-.28-.35-.5,0-.17.15-.31.32-.33.35-.04.61.28.57.61Z"/>
      <path class="cls-1" d="M9.79,9.66c-.16.17-.35.29-.59.31-.04,0-.07.01-.1-.02-.03-.03-.05-.18-.04-.22,0-.02.04-.02.04-.03.12-.39.27-.63.69-.75.12-.04.3-.08.3.09,0,.23-.13.46-.29.62Z"/>
      <path class="cls-1" d="M5.51,9.89s-.08.08-.1.08c-.03,0-.05-.03-.08-.04-.41-.09-.73-.31-.82-.76-.07-.31.08-.3.33-.22.2.07.49.31.57.5.03.07.11.39.09.44Z"/>
    </g>
  </g>
</svg>