<?xml version="1.0" encoding="UTF-8"?>
<svg id="Calque_2" data-name="Calque 2" xmlns="http://www.w3.org/2000/svg" viewBox="0 0 12.89 20.14">
  <defs>
    <style>
      .cls-1 {
        fill: #fff;
      }
    </style>
  </defs>
  <g id="Calque_1-2" data-name="Calque 1">
    <g>
      <path class="cls-1" d="M12.55.47c.83.96-.07,2.98-.52,3.98-.52,1.15-1.14,2.35-1.77,3.44-.97,1.7-2.13,3.29-3.05,5.02-.02.04-.02.11-.06.17-.16.23-.53.28-.75.1-.4-.32-.08-.77.11-1.11.73-1.29,1.68-2.52,2.45-3.8.98-1.61,2.43-4.15,2.82-5.96.08-.38.23-1.18-.3-1.26-.93-.14-2.37.57-3.09,1.13-1.33,1.03-3.01,3.33-3.42,4.97-.08.34,0,.78-.42.91-.21.07-.39.03-.56-.11-.25-.21-.18-.48-.24-.77-.1-.55-.64-2.18-1.05-2.53-.24-.2-.44-.11-.69.03-.59.34-.98,1.32-.98,1.98,0,1.72,1.9,3.72,2.98,4.95.12.13.25.25.27.43.06.51-.48.81-.9.53-.24-.17-.81-.97-1.03-1.24C1.14,9.78-.48,7.83.13,5.7c.28-.96.97-2.01,2.02-2.22,1.37-.27,1.82,1.15,2.22,2.14.01.03.03.11.06.11.2-.38.39-.78.61-1.15C6.13,2.78,7.81.92,9.86.26c.78-.25,2.08-.5,2.69.21Z"/>
      <path class="cls-1" d="M8.1,15.53c.95.8,1.61,2.41,1.05,3.61-.22.46-.77.94-1.29.99-.94.09-1.53-.4-2.06-1.09-.15.13-.28.32-.44.44-1.25.91-3.14-.02-3.26-1.53-.09-1.16.53-1.7,1.19-2.49.13-.16.2-.36.4-.45.5-.22.98.27.76.76-.34.73-1.38,1.08-1.26,2.13.03.29.4.73.68.8.44.12.75.06,1.04-.3.19-.23.19-.33.25-.6.08-.35.5-.57.82-.39.26.14.24.3.35.52.05.1.14.19.2.28.14.2.47.63.7.76.41.23.82.03.98-.39.33-.86-.35-1.93-1.04-2.41-.35-.25-.86-.33-.8-.87.03-.29.31-.49.59-.46.26.03.93.51,1.14.7Z"/>
    </g>
  </g>
</svg>