<?xml version="1.0" encoding="UTF-8"?>
<svg id="Calque_2" data-name="Calque 2" xmlns="http://www.w3.org/2000/svg" viewBox="0 0 16.2 16.01">
  <defs>
    <style>
      .cls-1 {
        fill: #fff;
      }
    </style>
  </defs>
  <g id="Calque_1-2" data-name="Calque 1">
    <g>
      <path class="cls-1" d="M16.1,2.7c-.02-.13-.08-.25-.18-.32-.21-.17-.62-.19-1.22-.19-.1,0-.2,0-.28,0-.01-.21,0-.42,0-.64.01-.28.02-.55,0-.82-.01-.17-.04-.56-.48-.69-.17-.02-.33-.03-.5-.03-.26,0-.52.02-.78.05-.19,0-.37.03-.56.03l-1.13.03h-.28c-.11-.01-.45-.01-.65.27-.14.19-.09.42-.06.59,0,.04,0,.08,0,.1l-.03.13v.05c.01.07.02.14.03.22l-2.77.04.06,1.04h-.11v-.59l-.05-.25-.15-.08c-.1-.06-.24-.08-.52-.08h-.57s-.2-.01-.22-.01c0-.09-.01-.18-.01-.27,0-.13,0-.24-.02-.33-.05-.16-.17-.36-.51-.38-.19,0-.4-.02-.61-.02h-.94s-.3.01-.3.01c-.09-.01-.17-.01-.26-.02-.13-.01-.26-.03-.38-.03-.09,0-.17.01-.26.02-.25.04-.42.29-.46.5-.02.09,0,.17.02.22v.29s-.21-.01-.21-.01c-.21,0-.48-.01-.73-.01-.22,0-.42.01-.56.03-.34.05-.48.3-.41.81v.4C.02,3.02.02,3.3.05,3.53c.05.49.43.53.61.55l.18.02.94-.04c.01.17.01.34.01.52,0,.23,0,.45.03.67.06.39.21.48.25.5.04.03.29.12.38.12h.12s.07-.05.07-.05c.07,0,.17.01.27.02.11.02.23.03.31.04h.3c.36,0,.72,0,1.07-.02.18-.01.36-.02.55-.02.18-.01.36-.01.56-.01h.11s.06-.04.06-.04c.05-.03.14-.07.21-.15.05-.05.08-.11.1-.2.03-.17.02-.47.01-.82v-.14s-.02-.18-.03-.21l1.15-.04.06,1.21h1.4l-.03-2.07h.15c.02.15.05.31.12.47l.08.17.97.03v.06c.02.71.06,1.15.35,1.3.08.04.18.08.7.08.21,0,.41-.01.49-.01.68-.02,1.51-.06,2.19-.12.11-.01.63-.08.63-.46v-.41h.36c.07,0,.13-.01.17-.03.08,0,.19.02.29.03.13.01.26.03.43.03h.06c.14-.01.48-.09.47-.58-.02-.39-.04-.91-.1-1.23ZM15.7,4.21c-.2.02-.54-.06-.75-.06-.05,0-.11.03-.17.03-.22,0-.44-.02-.66.03v.68c0,.09-.28.15-.36.16-.67.06-1.49.1-2.17.12-.18,0-.94.02-1.04-.03-.22-.12-.17-1.15-.21-1.4l-1.06-.03c-.09-.21-.1-.43-.12-.66l-.72.03.03,2.06h-.81l-.07-1.22-1.69.06c-.1.03-.02.41-.01.51,0,.21.03.71-.01.9-.01.08-.1.11-.17.14-.82,0-1.65.06-2.48.05-.18-.01-.47-.07-.64-.06-.05,0-.09.05-.14.05-.01,0-.21-.06-.22-.07-.07-.04-.1-.21-.11-.29-.07-.48.03-.98-.1-1.46l-1.2.05c-.24-.04-.44,0-.48-.3-.03-.34-.01-.8-.02-1.16-.01-.17-.12-.46.16-.51.32-.05,1.03-.01,1.39,0,.11,0,.24.05.36.03v-.68s-.04-.05-.03-.11c.02-.1.11-.23.22-.25.27-.04.57.02.84.03.59.01,1.28-.03,1.84.01.12.01.21.04.24.17.02.12,0,.77.06.8.16-.02.32.03.47.03.19.01.83-.04.95.03.02.01.05.06.05.07v.84s.04.05.05.05h.68l-.06-1.05,2.76-.04s.02-.05.02-.08c-.01-.14-.05-.31-.06-.44,0-.06.03-.12.03-.17,0-.15-.1-.39-.01-.51.16-.22.5-.14.73-.15.36-.01.73-.01,1.1-.03.6-.02,1.19-.13,1.79-.05.19.06.21.24.22.41.05.54-.04,1.13.02,1.67l.09.06c.31.04,1.28-.03,1.51.14.04.04.06.09.07.14.05.32.07.85.09,1.19,0,.15-.03.26-.2.27Z"/>
      <path class="cls-1" d="M15.2,9.22l-1.71-.06c0-.08,0-.2.01-.26v-.21c-.06-.79-.23-.87-.42-.94-.19-.03-.38-.03-.58-.03-.21,0-.43.02-.65.02-.11.01-.22.01-.33.01-.05.01-.1.01-.15.01l-.09-.04h-.17c-.52,0-1.12.04-1.63.07-.35.02-.4.04-.42.05-.13.04-.28.22-.28.38v2.68h-.1c-.53,0-1.05.03-1.58.06l-.17.06-.16.18.04,4.49v.3h.6c.53,0,1.29.01,1.69.01h2.03c.23-.01.47,0,.71,0,.25.01.5.01.75.01s.5,0,.73-.02c.18-.02.6-.04.67-.45l-.04-1.21c.16-.02.33-.02.53-.02h.2c.06.02.12.03.18.03.17,0,.28-.07.34-.13l.1-.09-.1-4.9ZM14.63,14.01c-.33-.01-.67,0-.99.05l.05,1.5c-.02.1-.29.13-.39.13-.7.05-1.5,0-2.21,0-1.21.01-2.44.01-3.68,0h-.31l-.03-4.37.05-.06c.65-.04,1.31-.05,1.96-.07v-2.97s.05-.09.07-.1c.03-.02.29-.03.35-.03.54-.03,1.18-.06,1.72-.06.02,0,.08.03.13.03.06,0,.12,0,.18-.02.5,0,1.01-.04,1.51,0,.1.05.15.56.16.67.01.17-.05.67.08.76l1.63.04.09,4.48c-.11.1-.25.02-.37.02Z"/>
      <path class="cls-1" d="M11.52,7.99s0-.14,0-.24v-.09c.02-.46.02-.75-.14-.94-.1-.08-.27-.13-.33-.14-.17-.04-.36-.04-.56-.04-.14,0-.68.02-.81.02-.2,0-.39-.02-.62-.05h-.23c-.65,0-1.35.01-2.06.06-.06.01-.13.01-.19.01-.12,0-.25,0-.38-.01-.04,0-.08-.01-.12-.01-.09,0-.19-.02-.29-.02-.13,0-.26.02-.38.04-.1.02-.2.07-.27.18-.07.09-.1.26-.08.51,0,.26.02.52.03.79-.09.01-.19.01-.29.01h-.55c-.16-.01-.32,0-.47.01-.34.04-.49.26-.51.46-.01.14.01.31.03.47.01.08.02.17.02.23.01.07,0,.14,0,.21v.05h-.79c-.17,0-.32.16-.32.16-.16.19-.12.36-.11.44v.55c-.02.87-.03,1.87.06,2.7.06.49.44.55.62.58.17.02.35.03.53.03h.51c.06,0,.12,0,.22,0,0,.15,0,.31,0,.47,0,.26,0,.53.04.81.04.24.25.57.5.66.04.03.11.06.6.08.18.01.38.02.57.02.17,0,.69-.01,1.05-.02h.6v-.3h-.31l-.03-4.37.05-.06c.65-.04,1.31-.05,1.96-.07v-2.97s.05-.09.07-.1c.03-.02.29-.03.35-.03.54-.03,1.18-.06,1.72-.06.02,0,.08.03.13.03.06,0,.12,0,.18-.02v-.05ZM11.11,7.72c-.52,0-1.12.04-1.63.07-.35.02-.4.04-.42.05-.13.04-.28.22-.28.38v2.68h-.1c-.53,0-1.05.03-1.58.06l-.17.06-.16.18.04,4.49c-.53.01-1.09.03-1.61,0-.1,0-.43-.03-.5-.05-.13-.05-.29-.29-.32-.43-.08-.5.02-1.02-.06-1.52-.1.02-.19-.03-.28-.03-.39-.02-.82.03-1.22-.03-.2-.03-.33-.07-.36-.3-.11-1-.06-2.21-.06-3.23.01-.09-.05-.13.03-.23.02-.02.09-.08.1-.08h1.09c-.02-.17.01-.38,0-.55,0-.2-.06-.49-.05-.67.02-.13.12-.18.24-.19.45-.05.96.01,1.39-.03.05,0,.19-.03.21-.06-.02-.34-.05-.69-.05-1.03,0-.11-.07-.35.11-.38.38-.07.93.03,1.33-.01.75-.06,1.51-.06,2.26-.06.6.1,1.37-.02,1.94.06.04.01.14.04.16.08.09.09.07.48.06.77h-.11Z"/>
      <path class="cls-1" d="M11.22,8.03c-.54,0-1.18.03-1.72.06-.06,0-.32,0-.35.03-.02.01-.07.08-.07.1v2.97c-.65.02-1.31.03-1.96.07l-.05.06.03,4.37h-.29l-.04-4.49.16-.18.17-.06c.53-.03,1.05-.05,1.58-.06h.1v-2.68c0-.16.15-.34.28-.38.02-.01.07-.03.42-.05.51-.03,1.11-.07,1.63-.07h.11c-.01.13-.01.25,0,.31Z"/>
    </g>
  </g>
</svg>